<svg xmlns="http://www.w3.org/2000/svg" width="25" height="25" viewBox="0 0 25 25">
  <defs>
    <style>
      .cls-1 {
        fill: #c90006;
      }

      .cls-2 {
        fill: #fff;
        fill-rule: evenodd;
      }
    </style>
  </defs>
  <circle id="Эллипс_2_копия_4" data-name="Эллипс 2 копия 4" class="cls-1" cx="12.5" cy="12.5" r="12.375"/>
  <path class="cls-2" d="M20.1,15.186l-5.6-9.7a2.384,2.384,0,0,0-4.141,0l-5.606,9.7a2.4,2.4,0,0,0,2.071,3.594H18.008A2.407,2.407,0,0,0,20.1,15.186Zm-7.676,1.442a0.892,0.892,0,1,1,0-1.784A0.892,0.892,0,0,1,12.422,16.628Zm0.813-5.766c-0.04.691-.082,1.379-0.122,2.07-0.02.224-.02,0.428-0.02,0.648a0.672,0.672,0,0,1-.671.648A0.657,0.657,0,0,1,11.75,13.6c-0.059-1.076-.122-2.133-0.181-3.209-0.02-.283-0.04-0.569-0.063-0.852A0.969,0.969,0,0,1,12.2,8.564a0.9,0.9,0,0,1,1.037.507,1.062,1.062,0,0,1,.082.448C13.3,9.97,13.255,10.417,13.235,10.862Z"/>
</svg>
