<svg xmlns="http://www.w3.org/2000/svg" width="70" height="70" viewBox="0 0 70 70">
  <defs>
    <style>
      .cls-1 {
        fill: #a8c74c;
      }

      .cls-1, .cls-2 {
        opacity: 0.15;
      }

      .cls-2 {
        fill: #a7c74b;
      }

      .cls-3 {
        fill: #a7c74a;
      }

      .cls-4 {
        fill: #fff;
        fill-rule: evenodd;
      }
    </style>
  </defs>
  <circle id="Эллипс_3" data-name="Эллипс 3" class="cls-1" cx="35" cy="35" r="35"/>
  <circle id="Эллипс_3_копия" data-name="Эллипс 3 копия" class="cls-2" cx="35" cy="35" r="26.938"/>
  <circle id="Эллипс_3_копия_2" data-name="Эллипс 3 копия 2" class="cls-3" cx="35" cy="35" r="19.594"/>
  <path id="Forma_1_копия_4" data-name="Forma 1 копия 4" class="cls-4" d="M44.155,28.849a0.444,0.444,0,0,0-.341-0.171H27.6l-0.427-2.217a0.459,0.459,0,0,0-.427-0.341h-2.56a0.426,0.426,0,1,0,0,.853h2.219l2.048,10.4a3.006,3.006,0,0,0,2.9,2.388h9.813a0.426,0.426,0,1,0,0-.853H31.44a1.967,1.967,0,0,1-1.707-.938l12.459-1.705a0.367,0.367,0,0,0,.341-0.341L44.24,29.1A0.421,0.421,0,0,0,44.155,28.849ZM41.765,35.5L29.307,37.12l-1.536-7.674H43.216ZM31.013,40.616a2.132,2.132,0,1,0,2.133,2.132A2.112,2.112,0,0,0,31.013,40.616Zm0,3.411a1.279,1.279,0,1,1,1.28-1.279A1.312,1.312,0,0,1,31.013,44.027Zm8.533-3.411a2.132,2.132,0,1,0,2.133,2.132A2.112,2.112,0,0,0,39.547,40.616Zm0,3.411a1.279,1.279,0,1,1,1.28-1.279A1.312,1.312,0,0,1,39.547,44.027Z"/>
</svg>
