<svg xmlns="http://www.w3.org/2000/svg" width="22" height="20" viewBox="0 0 22 20">
  <defs>
    <style>
      .cls-1 {
        fill: #fff;
        fill-rule: evenodd;
      }
    </style>
  </defs>
  <path id="Forma_1" data-name="Forma 1" class="cls-1" d="M21.155,3.848a0.443,0.443,0,0,0-.341-0.17H4.6L4.173,1.461a0.46,0.46,0,0,0-.427-0.341H1.186a0.4,0.4,0,0,0-.427.427,0.4,0.4,0,0,0,.427.426H3.405l2.048,10.4a3.006,3.006,0,0,0,2.9,2.388h9.813a0.426,0.426,0,1,0,0-.853H8.44a1.967,1.967,0,0,1-1.707-.938l12.459-1.706a0.367,0.367,0,0,0,.341-0.341L21.24,4.1A0.422,0.422,0,0,0,21.155,3.848ZM18.765,10.5L6.307,12.12,4.77,4.445H20.216ZM8.013,15.616a2.132,2.132,0,1,0,2.133,2.132A2.112,2.112,0,0,0,8.013,15.616Zm0,3.411a1.279,1.279,0,1,1,1.28-1.279A1.312,1.312,0,0,1,8.013,19.027Zm8.533-3.411a2.132,2.132,0,1,0,2.133,2.132A2.112,2.112,0,0,0,16.547,15.616Zm0,3.411a1.279,1.279,0,1,1,1.28-1.279A1.312,1.312,0,0,1,16.547,19.027Z"/>
</svg>
