<svg xmlns="http://www.w3.org/2000/svg" width="25" height="25" viewBox="0 0 25 25">
  <defs>
    <style>
      .cls-1 {
        fill: #ff965f;
      }

      .cls-2 {
        fill: #fff;
        fill-rule: evenodd;
      }
    </style>
  </defs>
  <circle id="Эллипс_2_копия_2" data-name="Эллипс 2 копия 2" class="cls-1" cx="12.5" cy="12.5" r="12.375"/>
  <path id="Forma_1_копия" data-name="Forma 1 копия" class="cls-2" d="M12.59,4.326l1.995,4.724L19.691,9.49a0.4,0.4,0,0,1,.23.706l-3.874,3.358,1.161,5a0.4,0.4,0,0,1-.6.436l-4.389-2.648L7.831,18.985a0.4,0.4,0,0,1-.6-0.436l1.161-5L4.517,10.195a0.4,0.4,0,0,1,.229-0.706L9.854,9.05l1.995-4.723A0.4,0.4,0,0,1,12.59,4.326Z"/>
</svg>
