<svg xmlns="http://www.w3.org/2000/svg" width="17" height="17" viewBox="0 0 17 17">
  <defs>
    <style>
      .cls-1 {
        fill-rule: evenodd;
      }
    </style>
  </defs>
  <path id="Forma_1" data-name="Forma 1" class="cls-1" d="M12.286,0.05H4.714A4.669,4.669,0,0,0,.05,4.713v7.573A4.669,4.669,0,0,0,4.714,16.95h7.572a4.669,4.669,0,0,0,4.664-4.664V4.713A4.669,4.669,0,0,0,12.286.05Zm3.165,12.236a3.168,3.168,0,0,1-3.164,3.164H4.714a3.168,3.168,0,0,1-3.164-3.164V4.713A3.168,3.168,0,0,1,4.714,1.549h7.572A3.168,3.168,0,0,1,15.45,4.713v7.573h0ZM8.5,4.145A4.355,4.355,0,1,0,12.855,8.5,4.36,4.36,0,0,0,8.5,4.145Zm0,7.21A2.855,2.855,0,1,1,11.355,8.5,2.858,2.858,0,0,1,8.5,11.355Zm4.537-8.481a1.1,1.1,0,1,0,.778.322A1.1,1.1,0,0,0,13.037,2.874Z"/>
</svg>
