<svg xmlns="http://www.w3.org/2000/svg" width="13" height="16" viewBox="0 0 13 16">
  <defs>
    <style>
      .cls-1 {
        fill: #282828;
        fill-rule: evenodd;
      }
    </style>
  </defs>
  <path class="cls-1" d="M9,9.248L8.96,9.231c-0.088-.04-0.176-0.078-0.267-0.113s-0.2-.076-0.3-0.11c-0.08-.026-0.161-0.051-0.242-0.075C8.027,8.9,7.9,8.865,7.772,8.836L7.639,8.811,7.609,8.8C7.532,8.79,7.456,8.777,7.378,8.765l-0.022,0h0l-0.022,0C7.267,8.749,7.2,8.74,7.137,8.732L6.91,8.713a6.124,6.124,0,0,0-.842,0l-0.08.007-0.037,0-0.094.008C5.77,8.743,5.685,8.755,5.6,8.769l-0.025,0C5.515,8.781,5.457,8.792,5.4,8.8s-0.127.024-.19,0.038C5.087,8.868,4.965,8.9,4.848,8.934,4.754,8.961,4.662,8.99,4.575,9.02l-0.06.022c-0.184.065-.367,0.14-0.544,0.222l-0.047.023h0A6,6,0,0,0,.515,14.68c0,0.053,0,.1.007,0.156L0.537,15.2H12.462l0.016-.359c0-.053.007-0.106,0.007-0.161A6,6,0,0,0,9,9.248ZM1.1,14.616A5.414,5.414,0,0,1,4.2,9.8l0.06-.024,0.007-.007c0.145-.066.3-0.127,0.447-0.18l0.048-.017C4.841,9.547,4.924,9.52,5.009,9.5c0.107-.031.215-0.059,0.324-0.084L5.5,9.378l0.139-.024,0.023,0c0.084-.013.168-0.025,0.251-0.034L6.108,9.3a5.164,5.164,0,0,1,.78,0L7.074,9.314,7.222,9.334,7.289,9.343q0.1,0.016.21,0.035L7.531,9.385,7.647,9.407C7.762,9.433,7.875,9.462,7.987,9.5c0.074,0.021.148,0.044,0.22,0.068q0.137,0.045.27,0.1c0.086,0.033.17,0.069,0.254,0.108L8.746,9.776A5.412,5.412,0,0,1,11.9,14.615H1.1ZM5.055,7.963C5.1,7.981,5.144,8,5.189,8.013l0.1,0.035C5.321,8.062,5.358,8.075,5.4,8.087a3.712,3.712,0,0,0,1.084.169h0.03a3.714,3.714,0,0,0,.377-0.019c0.042,0,.083-0.011.124-0.018L7.1,8.206c0.051-.007.1-0.014,0.157-0.025,0.037-.008.072-0.017,0.108-0.027l0.1-.025c0.049-.012.1-0.024,0.148-0.039,0.03-.01.06-0.021,0.09-0.032l0.08-.029c0.057-.019.115-0.04,0.173-0.064C7.979,7.955,8,7.944,8.023,7.934l0.026-.013c0.079-.035.158-0.072,0.237-0.113l0.051-.031c0.088-.049.175-0.1,0.264-0.161,0.046-.031.09-0.066,0.133-0.1L8.882,7.4a3.7,3.7,0,0,0,1.355-2.84l0-.031a3.729,3.729,0,0,0-7.45-.235l0,0.049c0,0.062-.008.123-0.008,0.186A3.72,3.72,0,0,0,5.055,7.963ZM3.368,4.382l0-.053A3.145,3.145,0,0,1,9.656,4.5l0,0.031A3.143,3.143,0,0,1,8.506,6.953l-0.139.106c-0.031.025-.062,0.05-0.1,0.077-0.07.047-.144,0.091-0.22,0.133L8,7.295c-0.063.034-.129,0.064-0.2,0.094l-0.077.037c-0.044.019-.091,0.035-0.137,0.051l-0.1.035-0.056.02C7.4,7.543,7.366,7.551,7.329,7.561l-0.117.03L7.14,7.609C7.1,7.616,7.062,7.621,7.022,7.627l-0.111.017c-0.027,0-.054.009-0.084,0.012-0.1.01-.2,0.016-0.295,0.017H6.5A3.131,3.131,0,0,1,5.57,7.53C5.544,7.522,5.518,7.512,5.493,7.5l-0.11-.04c-0.034-.012-0.068-0.023-0.1-0.037a3.14,3.14,0,0,1-1.921-2.9C3.361,4.479,3.365,4.43,3.368,4.382Z"/>
</svg>
