<svg xmlns="http://www.w3.org/2000/svg" viewBox="0 0 316.1218 184.1471"><defs><style>.cls-1,.cls-2{fill:#1a171b;}.cls-2{fill-rule:evenodd;}</style></defs><title>Ресурс 1</title><g id="Слой_2" data-name="Слой 2"><g id="Слой_1-2" data-name="Слой 1"><path class="cls-1" d="M154.4756,109.512v3.8075h7.05v1.2419h-7.05v4.0553h8.7058v1.2415H152.076V108.27h11.1053v1.2416Zm60.3482,3.3709V72.0536a1.494,1.494,0,0,1,1.6441-1.6351h2.2213a1.4961,1.4961,0,0,1,1.6441,1.6351v20.33H232.48v-20.33a1.494,1.494,0,0,1,1.6441-1.6351h2.2212a1.4961,1.4961,0,0,1,1.6441,1.6351v46.17a1.4963,1.4963,0,0,1-1.6441,1.6353h-2.2212a1.4942,1.4942,0,0,1-1.6441-1.6353V97.893H220.3332v20.33a1.4962,1.4962,0,0,1-1.6441,1.6353h-2.2213a1.4942,1.4942,0,0,1-1.6441-1.6353v-5.34Zm99.1584-37.45H301.9968V92.3836h10.7243a1.4942,1.4942,0,0,1,1.6353,1.6441v2.2212a1.4968,1.4968,0,0,1-1.6353,1.6441H301.9968v20.33a1.4954,1.4954,0,0,1-1.6441,1.6353h-2.2213a1.4942,1.4942,0,0,1-1.6441-1.6353V71.928a1.4337,1.4337,0,0,1,1.5094-1.5095H314.48a1.518,1.518,0,0,1,1.635,1.6736c0,.6987.0071.9981.0071,1.6968a1.4955,1.4955,0,0,1-1.6353,1.6438Zm-39.0444,0H262.9523V92.3836h10.7243a1.4942,1.4942,0,0,1,1.6353,1.6441v2.2212a1.4967,1.4967,0,0,1-1.6353,1.6441H262.9523V114.844h12.49a1.4956,1.4956,0,0,1,1.6353,1.6441c0,.6987-.0068.998-.0068,1.6968a1.5182,1.5182,0,0,1-1.6353,1.6736H258.9524a1.4337,1.4337,0,0,1-1.5095-1.5095V71.928a1.4337,1.4337,0,0,1,1.5095-1.5095h16.4829a1.5181,1.5181,0,0,1,1.6353,1.6736c0,.6987.0068.9981.0068,1.6968a1.4955,1.4955,0,0,1-1.6353,1.6438ZM53.0162,105.1673h5.4383L53.0162,76.6341,47.578,105.1673Zm0-34.7488h2.4554a1.4405,1.4405,0,0,1,1.4451,1.1931l8.9164,46.575a1.346,1.346,0,0,1-1.3592,1.6718H62.2512a1.4154,1.4154,0,0,1-1.4111-1.1914L59.1609,109.9H46.8716l-1.6792,8.767a1.4157,1.4157,0,0,1-1.4114,1.1914H41.5583a1.3459,1.3459,0,0,1-1.3589-1.6718l8.9161-46.575a1.441,1.441,0,0,1,1.4454-1.1931Zm85.7472,44.4254H126.778v-42.79a1.4951,1.4951,0,0,0-1.6441-1.6351h-2.2212a1.494,1.494,0,0,0-1.6441,1.6351V118.349a1.4325,1.4325,0,0,0,1.5094,1.5095h16.4829a1.5182,1.5182,0,0,0,1.635-1.6736c0-.6987.0071-.998.0071-1.6968a1.4944,1.4944,0,0,0-1.6353-1.6441Zm-35.1029,0H91.6751v-42.79a1.4953,1.4953,0,0,0-1.6441-1.6351H87.81a1.4939,1.4939,0,0,0-1.6438,1.6351V118.349a1.4325,1.4325,0,0,0,1.5095,1.5095H104.158a1.5182,1.5182,0,0,0,1.635-1.6736c0-.6987.0071-.998.0071-1.6968a1.4944,1.4944,0,0,0-1.6353-1.6441Zm85.45-44.4254h4.5093a1.4941,1.4941,0,0,1,1.6353,1.6438c0,.6988-.0071,1.0837-.0071,1.7824a1.5183,1.5183,0,0,1-1.635,1.6736h-2.656c-14.6758,0-16.37,39.2395-.0094,39.2395l2.6722.0005a1.4942,1.4942,0,0,1,1.6353,1.6441c0,.6987-.0071,1.0836-.0071,1.7824a1.5182,1.5182,0,0,1-1.635,1.6736h-4.5133c-21.2751,0-19.27-49.44.0108-49.44Zm-173.8868,0h4.5094a1.4941,1.4941,0,0,1,1.6353,1.6438c0,.6988-.0068,1.0837-.0068,1.7824a1.5185,1.5185,0,0,1-1.6353,1.6736H17.07c-14.6758,0-16.37,39.2395-.0094,39.2395l2.6722.0005a1.4942,1.4942,0,0,1,1.6353,1.6441c0,.6987-.0068,1.0836-.0068,1.7824a1.5184,1.5184,0,0,1-1.6353,1.6736H15.2125c-21.2751,0-19.27-49.44.0108-49.44ZM163.4157,71.66h-4.4691V82.0057H156.546V71.66h-4.47V70.418h11.34V71.66Zm.1239,17.6851v11.588H161.139V95.8833h-6.787v5.0493h-2.4V89.3446h2.4v5.2971h6.787V89.3446Z"/><path class="cls-1" d="M45.1759,173.3859a2.6243,2.6243,0,0,0-1.04.21,2.5518,2.5518,0,0,0-.8751.62,2.904,2.904,0,0,0-.6015,1.021,4.2448,4.2448,0,0,0-.2191,1.4321,4.5287,4.5287,0,0,0,.2191,1.4862,2.974,2.974,0,0,0,.6015,1.0485,2.51,2.51,0,0,0,.8751.63,2.6825,2.6825,0,0,0,2.08,0,2.5065,2.5065,0,0,0,.875-.63,2.9742,2.9742,0,0,0,.6018-1.0485,4.5138,4.5138,0,0,0,.2191-1.4862,4.2307,4.2307,0,0,0-.2191-1.4321,2.9043,2.9043,0,0,0-.6018-1.021,2.5488,2.5488,0,0,0-.875-.62,2.6228,2.6228,0,0,0-1.04-.21Zm.1823-1.2764a6.4927,6.4927,0,0,1,2.0976.3282,5.1154,5.1154,0,0,1,1.6775.93,4.2158,4.2158,0,0,1,1.514,3.3015,4.1738,4.1738,0,0,1-.41,1.86,4.3408,4.3408,0,0,1-1.1307,1.4414,5.1613,5.1613,0,0,1-1.7238.93,7.0677,7.0677,0,0,1-2.2065.3285,6.8747,6.8747,0,0,1-2.2068-.3379,5.0062,5.0062,0,0,1-1.7238-.9666,4.4246,4.4246,0,0,1-1.1307-1.5412,5.0213,5.0213,0,0,1-.41-2.0792v-2.0974a6.1093,6.1093,0,0,1,1.3677-4.3226,5.7978,5.7978,0,0,1,3.83-1.6957l4.7418-.4567V169.83l-4.5592.4564q-3.8311.3827-3.83,3.9209h.1823a3.7,3.7,0,0,1,1.5143-1.5684,4.9609,4.9609,0,0,1,2.4072-.5289Zm22.7239,8.7545V171.38h2.554v9.4839Zm-5.8357-6.2014a5.5638,5.5638,0,0,1,3.4013.83,2.95,2.95,0,0,1,0,4.5414,5.5622,5.5622,0,0,1-3.4013.83H57.3215V171.38h2.5535v3.2825ZM59.8749,175.94v3.6473h2.3715a1.7086,1.7086,0,0,0,1.2767-.4652,2.2531,2.2531,0,0,0,0-2.7176,1.7083,1.7083,0,0,0-1.2767-.4646Zm23.18-4.9246a6.8727,6.8727,0,0,1,1.1673.1,8.2021,8.2021,0,0,1,1.1222.2733,5.7288,5.7288,0,0,1,1.0032.4289,4.3524,4.3524,0,0,1,.8113.5655l-.7293,1.0942a6.6043,6.6043,0,0,0-1.5233-.8756,4.4569,4.4569,0,0,0-1.6688-.31,3.3454,3.3454,0,0,0-1.2036.21,2.3484,2.3484,0,0,0-.9482.6749,3.322,3.322,0,0,0-.63,1.1945,6.8412,6.8412,0,0,0,0,3.5022,3.1662,3.1662,0,0,0,.648,1.1945,2.4263,2.4263,0,0,0,1.0119.6744,3.8728,3.8728,0,0,0,1.3039.21,4.45,4.45,0,0,0,1.6685-.31,6.5809,6.5809,0,0,0,1.523-.8756l.73,1.0942a4.3559,4.3559,0,0,1-.8121.5658,5.76,5.76,0,0,1-1.0026.4286,8.1558,8.1558,0,0,1-1.1219.2733,6.8732,6.8732,0,0,1-1.1673.1006,7.797,7.797,0,0,1-2.3621-.3379,5.0616,5.0616,0,0,1-1.8145-.985,4.3728,4.3728,0,0,1-1.1579-1.5953,6.0169,6.0169,0,0,1,0-4.3685,4.4583,4.4583,0,0,1,1.14-1.605,4.9488,4.9488,0,0,1,1.751-.985,7.1863,7.1863,0,0,1,2.2615-.337Zm19.7155,1.6415H98.94v8.2072H96.3869v-8.2072h-3.83V171.38h10.2138v1.2767Zm8.771,0v6.93h2.28a3.2856,3.2856,0,0,0,1.14-.1911,2.21,2.21,0,0,0,.8932-.6114,2.9256,2.9256,0,0,0,.5833-1.0758,6.0922,6.0922,0,0,0,0-3.174,2.9277,2.9277,0,0,0-.5833-1.0757,2.2,2.2,0,0,0-.8932-.6111,3.2792,3.2792,0,0,0-1.14-.1913Zm2.28-1.2767a7.5049,7.5049,0,0,1,2.2887.3282,5.031,5.031,0,0,1,1.76.9485,4.1842,4.1842,0,0,1,1.1219,1.4956,5.1437,5.1437,0,0,1,0,3.9393,4.1845,4.1845,0,0,1-1.1219,1.4956,5.0407,5.0407,0,0,1-1.76.9485,7.5049,7.5049,0,0,1-2.2887.3282h-2.28v3.2831h-2.5532V171.38Zm23.18,9.4839V171.38h2.554v9.4839Zm-5.8357-6.2014a5.5638,5.5638,0,0,1,3.4013.83,2.95,2.95,0,0,1,0,4.5414,5.5621,5.5621,0,0,1-3.4013.83h-4.9249V171.38h2.5535v3.2825Zm-2.3714,1.2773v3.6473h2.3714a1.7075,1.7075,0,0,0,1.2765-.4652,2.252,2.252,0,0,0,0-2.7176,1.7072,1.7072,0,0,0-1.2765-.4646Zm22.9986-5.654a3.7381,3.7381,0,0,1-2.59-.7937,2.62,2.62,0,0,1-.8756-2.0336h2.0973a1.5557,1.5557,0,0,0,.41,1.1219,1.2848,1.2848,0,0,0,1.9148,0,1.5558,1.5558,0,0,0,.41-1.1219h2.0974a2.6211,2.6211,0,0,1-.8751,2.0336,3.74,3.74,0,0,1-2.59.7937Zm5.2889,1.0942v9.4839h-2.5532v-7.113h-.1826l-4.1949,7.113h-3.2831V171.38h2.5535v7.113h.1823l4.195-7.113Zm25.2771,12.767V180.864h-.2733a6.8866,6.8866,0,0,1-2.1889-.3282,4.9089,4.9089,0,0,1-1.696-.9485,4.2777,4.2777,0,0,1-1.1035-1.4956,5.14,5.14,0,0,1,0-3.9393,4.2774,4.2774,0,0,1,1.1035-1.4956,4.8992,4.8992,0,0,1,1.696-.9485,6.8866,6.8866,0,0,1,2.1889-.3282h.2733V168.097h2.5534V171.38h.2733a6.8893,6.8893,0,0,1,2.1892.3282,4.9008,4.9008,0,0,1,1.6957.9485,4.2784,4.2784,0,0,1,1.1038,1.4956,5.1441,5.1441,0,0,1,0,3.9393,4.2787,4.2787,0,0,1-1.1038,1.4956,4.91,4.91,0,0,1-1.6957.9485,6.8893,6.8893,0,0,1-2.1892.3282h-.2733v3.2831Zm0-4.56v-6.93h-.2733a2.7776,2.7776,0,0,0-1.031.1913,2.1031,2.1031,0,0,0-.8385.6111,3.1055,3.1055,0,0,0-.5658,1.0757,6.1162,6.1162,0,0,0,0,3.174,3.1033,3.1033,0,0,0,.5658,1.0758,2.1121,2.1121,0,0,0,.8385.6114,2.783,2.783,0,0,0,1.031.1911Zm2.5534-6.93v6.93h.2733a2.7764,2.7764,0,0,0,1.03-.1911,2.1079,2.1079,0,0,0,.8391-.6114,3.1,3.1,0,0,0,.5658-1.0758,6.1076,6.1076,0,0,0,0-3.174,3.1019,3.1019,0,0,0-.5658-1.0757,2.0989,2.0989,0,0,0-.8391-.6111,2.771,2.771,0,0,0-1.03-.1913Zm17.7089,11.49h-2.554l1.2773-3.2831h-1.5505l-3.83-9.4839h2.5532l3.1916,7.9339h.1825l3.01-7.9339h2.5532l-4.8331,12.767Zm13.6049-11.49v6.93h2.28a3.2826,3.2826,0,0,0,1.14-.1911,2.21,2.21,0,0,0,.8935-.6114,2.9253,2.9253,0,0,0,.5834-1.0758,6.0922,6.0922,0,0,0,0-3.174,2.9273,2.9273,0,0,0-.5834-1.0757,2.2007,2.2007,0,0,0-.8935-.6111,3.2762,3.2762,0,0,0-1.14-.1913Zm2.28-1.2767a7.505,7.505,0,0,1,2.2887.3282,5.0318,5.0318,0,0,1,1.76.9485,4.1839,4.1839,0,0,1,1.1219,1.4956,5.1444,5.1444,0,0,1,0,3.9393,4.1841,4.1841,0,0,1-1.1219,1.4956,5.0414,5.0414,0,0,1-1.76.9485,7.505,7.505,0,0,1-2.2887.3282h-2.28v3.2831h-2.5534V171.38Zm12.42,9.4839V171.38H233.48v8.2072h3.2831V171.38h2.5532v8.2072h3.2834V171.38h2.5532v9.4839Zm27.01-.9116a4.4484,4.4484,0,0,0,1.6685-.31,6.58,6.58,0,0,0,1.5231-.8756l.73,1.0942a4.3549,4.3549,0,0,1-.8121.5658,5.76,5.76,0,0,1-1.0026.4286,8.1568,8.1568,0,0,1-1.1219.2733,6.8735,6.8735,0,0,1-1.1673.1006,7.7967,7.7967,0,0,1-2.3621-.3379,5.0639,5.0639,0,0,1-1.8145-.985,4.3763,4.3763,0,0,1-1.1579-1.5953,5.4724,5.4724,0,0,1-.41-2.1892,5.71,5.71,0,0,1,.392-2.1793,4.4359,4.4359,0,0,1,1.0942-1.605,4.7425,4.7425,0,0,1,1.6688-.985,6.4471,6.4471,0,0,1,2.1342-.337,6.3547,6.3547,0,0,1,2.0608.3282,4.8513,4.8513,0,0,1,1.6781.9578,4.6281,4.6281,0,0,1,1.1308,1.5228,4.7053,4.7053,0,0,1,.4193,2.0242v1.2767H254.8a2.899,2.899,0,0,0,3.1368,2.8273Zm-.6383-7.7513a2.4293,2.4293,0,0,0-.985.2,2.0339,2.0339,0,0,0-.7931.6381,3.5139,3.5139,0,0,0-.5474,1.131,6.2706,6.2706,0,0,0-.2279,1.6781h5.1066a5.477,5.477,0,0,0-.2185-1.6415,3.5176,3.5176,0,0,0-.5743-1.14,2.2077,2.2077,0,0,0-.8209-.6565,2.2618,2.2618,0,0,0-.9394-.2095Zm20.5361.4558h-3.8307v8.2072h-2.5532v-8.2072h-3.83V171.38h10.2138v1.2767Z"/><path class="cls-2" d="M122.9036,41.5621H193.67a1.4939,1.4939,0,0,1,1.635,1.6438v2.2215a1.4961,1.4961,0,0,1-1.635,1.6441H122.9036a1.496,1.496,0,0,1-1.635-1.6441V43.2059a1.494,1.494,0,0,1,1.635-1.6438Zm72.4014-7.0685a1.5022,1.5022,0,0,1-1.4394,1.4408H179.2512a1.4806,1.4806,0,0,1-1.4372-1.4561v-12.74a3.4833,3.4833,0,0,0-2.7592-3.5277c-9.7381-2.08-23.2835-1.9262-33.1719-.015-2.2912.4422-3.12,1.1611-3.12,3.6825v12.6a1.4794,1.4794,0,0,1-1.4395,1.4561H122.7088a1.5056,1.5056,0,0,1-1.44-1.4408l.0005-3.5748C121.2717,15.3345,139.77,10.5347,158.274,10.9c18.5131-.3725,37.031,4.4277,37.031,20.0179v3.5757ZM128.95,20.0239c-1.9378,4.3092-.3433,9.4427-.3433,10.8207a2.5115,2.5115,0,1,1-4.9932,0c0-1.378.936-7.8446,5.3365-10.8207ZM157.1676,0h2.2382a1.4988,1.4988,0,0,1,1.6353,1.6441V3.8656a1.5,1.5,0,0,1-1.6353,1.6438h-2.2382a1.495,1.495,0,0,1-1.6353-1.6438V1.6441A1.4943,1.4943,0,0,1,157.1676,0Z"/><path class="cls-2" d="M122.9036,143.0079H193.67a1.494,1.494,0,0,1,1.635,1.6441v2.2212a1.4961,1.4961,0,0,1-1.635,1.6441H122.9036a1.496,1.496,0,0,1-1.635-1.6441v-2.2212a1.4941,1.4941,0,0,1,1.635-1.6441Z"/></g></g></svg>