<svg xmlns="http://www.w3.org/2000/svg" width="25" height="25" viewBox="0 0 25 25">
  <defs>
    <style>
      .cls-1 {
        fill: #ffc600;
      }

      .cls-2 {
        fill: #fff;
        fill-rule: evenodd;
      }
    </style>
  </defs>
  <circle id="Эллипс_2_копия_2" data-name="Эллипс 2 копия 2" class="cls-1" cx="12.5" cy="12.5" r="12.375"/>
  <path id="Фигура_2_копия" data-name="Фигура 2 копия" class="cls-2" d="M9.1,21.593c-2.135-7.048,2.377-9.621,2.377-9.621A10.91,10.91,0,0,0,13.3,18.663a11.493,11.493,0,0,0,2.282-1.346,24.457,24.457,0,0,1-.79,4.274,11.309,11.309,0,0,0,3.638-5.7c0.87-3.559-1.657-7.132-1.657-7.132a9.552,9.552,0,0,1-2.365,6.889,1.387,1.387,0,0,0,.207-0.319c0.3-.6.78-2.159,0.5-5.77a9.217,9.217,0,0,0-4.981-7.205c0.395,3.088-.79,3.8-3.565,9.661S9.1,21.593,9.1,21.593h0Zm0,0"/>
</svg>
