<svg xmlns="http://www.w3.org/2000/svg" width="16" height="34" viewBox="0 0 16 34">
  <defs>
    <style>
      .cls-1 {
        fill-rule: evenodd;
      }
    </style>
  </defs>
  <path id="Forma_1_копия_2" data-name="Forma 1 копия 2" class="cls-1" d="M12.091,33.67a1.715,1.715,0,0,1-1.713-1.713V1.472A1.454,1.454,0,0,1,12.091.184c2.15,0,2.818,7.636,2.818,10.417A39.785,39.785,0,0,1,13.8,19.477V31.956A1.715,1.715,0,0,1,12.091,33.67ZM11.519,19.976V31.956a0.572,0.572,0,1,0,1.145,0V19.976H11.519Zm0-1.141h1.266a39.305,39.305,0,0,0,.984-8.233c0-4.764-1.119-8.867-1.722-9.276a0.572,0.572,0,0,0-.528.176V18.835h0ZM3.673,33.67a1.591,1.591,0,0,1-1.127-.46,1.375,1.375,0,0,1-.407-0.985L2.323,13.562A3.821,3.821,0,0,1-.122,10.093c0-.014,0-0.029,0-0.043l0.391-8.6A0.579,0.579,0,0,1,.866.9a0.57,0.57,0,0,1,.544.6L1.046,9.505H2.041L2.224,1.459a0.57,0.57,0,1,1,1.14.026L3.182,9.505H4.164L3.982,1.485a0.57,0.57,0,1,1,1.14-.026L5.305,9.505H6.3L5.936,1.5a0.57,0.57,0,1,1,1.139-.052l0.391,8.6c0,0.014,0,.029,0,0.043a3.821,3.821,0,0,1-2.445,3.469L5.207,32.225a1.375,1.375,0,0,1-.407.985A1.592,1.592,0,0,1,3.673,33.67ZM3.462,13.813L3.28,32.236a0.244,0.244,0,0,0,.077.171,0.489,0.489,0,0,0,.632,0,0.244,0.244,0,0,0,.077-0.171L3.884,13.813H3.462ZM1.1,10.646a2.653,2.653,0,0,0,5.156,0H1.1Z"/>
</svg>
