<svg xmlns="http://www.w3.org/2000/svg" width="21" height="39" viewBox="0 0 21 39">
  <defs>
    <style>
      .cls-1 {
        fill-rule: evenodd;
      }
    </style>
  </defs>
  <path id="Фигура_9" data-name="Фигура 9" class="cls-1" d="M16.848,20.207A15.8,15.8,0,0,0,20.485,7.2c-0.077-.454-0.153-0.83-0.241-1.184L18.9,0.608A0.517,0.517,0,0,0,18.4.214H2.61a0.518,0.518,0,0,0-.5.394l-1.339,5.4C0.679,6.366.6,6.743,0.526,7.2A15.8,15.8,0,0,0,4.163,20.207l4.548,5.256v8.158L5.123,35.842a0.52,0.52,0,0,0-.246.442v1.37a0.519,0.519,0,0,0,.518.519h10.22a0.519,0.519,0,0,0,.518-0.519v-1.37a0.52,0.52,0,0,0-.246-0.442L12.3,33.621V25.463ZM11.51,34.352L15.1,36.574v0.561H5.914V36.573L9.5,34.351a0.519,0.519,0,0,0,.245-0.441V25.269a0.52,0.52,0,0,0-.126-0.34l-4.676-5.4a14.765,14.765,0,0,1-3.4-12.156c0.073-.428.144-0.78,0.225-1.107L3.015,1.252H18l1.243,5.012c0.081,0.326.152,0.679,0.225,1.107a14.766,14.766,0,0,1-3.4,12.156l-4.675,5.4a0.519,0.519,0,0,0-.126.34V33.91a0.519,0.519,0,0,0,.246.441h0Zm0,0,4.336-18.8a0.517,0.517,0,0,0,.689-0.249,12.821,12.821,0,0,0,1.032-7.613,0.518,0.518,0,0,0-1.021.173,11.786,11.786,0,0,1-.947,7,0.52,0.52,0,0,0,.247.691h0Zm0,0"/>
</svg>
