<svg xmlns="http://www.w3.org/2000/svg" width="35" height="35" viewBox="0 0 35 35">
  <defs>
    <style>
      .cls-1 {
        fill-rule: evenodd;
      }
    </style>
  </defs>
  <path id="Forma_1" data-name="Forma 1" class="cls-1" d="M18.244,34.359A16.738,16.738,0,1,1,34.979,17.62,16.756,16.756,0,0,1,18.244,34.359Zm0-32.22A15.481,15.481,0,1,0,33.722,17.62,15.5,15.5,0,0,0,18.244,2.139Zm0,27.666A12.185,12.185,0,1,1,30.426,17.62,12.2,12.2,0,0,1,18.244,29.805Zm0-23.112A10.927,10.927,0,1,0,29.169,17.62,10.939,10.939,0,0,0,18.244,6.693Z"/>
</svg>
