<svg xmlns="http://www.w3.org/2000/svg" width="25" height="25" viewBox="0 0 25 25">
  <defs>
    <style>
      .cls-1 {
        fill: #a7c74a;
      }

      .cls-2 {
        fill: #fff;
        fill-rule: evenodd;
      }
    </style>
  </defs>
  <circle id="Эллипс_2_копия_3" data-name="Эллипс 2 копия 3" class="cls-1" cx="12.5" cy="12.5" r="12.375"/>
  <path id="Forma_1_копия_2" data-name="Forma 1 копия 2" class="cls-2" d="M17.241,4.163A10.54,10.54,0,0,1,14.092,6.2c-12.113,4.346-7,12.814-6.838,12.841a6.923,6.923,0,0,1,1.6-1.842c5.822-4.245,7.006-9.132,7.006-9.132a17.514,17.514,0,0,1-6.487,9.539c-1.144.808-1.919,2.8-2.247,4.784,0,0,.811-0.325,1.16-0.413a6.365,6.365,0,0,1,.9-2.476,8.567,8.567,0,0,0,9.92-6.948A12.39,12.39,0,0,0,17.241,4.163Z"/>
</svg>
