<svg xmlns="http://www.w3.org/2000/svg" viewBox="0 0 30 30"><path d="M27 13.2c-.2-.6-.6-2.1-1.3-2.9-.6-.8-1.7-1.8-3.2-2.3-1.5-.5-4.6-1.3-5.7-.7-1.1.5-2 1.7-2.7 3.8-.7 2.1-1.3 5.5-1.3 7.7.1 2.2.6 5.5 1.4 6.4.8.9 1.2 1.1 1.2 1.1s.5.1.8 0c.3-.1 1.8-.1 2.2 0 .4.1 1.3.3 1.6.2.3-.1.9-.4 1.4-.8.4-.4 1.6-1.3 1.9-1.8.4-.4 1.5-1.8 1.7-2.5.2-.7.3-1.9.5-2.2.1-.3.4-.5.8-1.2.4-.6 1-1.3 1.1-2 0-.7-.4-2.8-.4-2.8zm-9.9-1.8c1.2-.7 2.7-1 4-.5 1.3.4 1.6 1.1 2 2.4-.7-1.4-1.6-2.2-3.2-2.3-.9-.2-1.9.1-2.8.4zm1.3 1.4c.1 0 .1 0 0 0 .1 0 .1 0 0 0 .1 0 .1 0 0 0 .1-.1.3-.1.5-.2h.7c.5 0 1 .1 1.4.4.8.4 1.4 1.2 1.5 2.1v.1c0 .1-.1.1-.2 0 0-.8-.5-1.6-1.2-2-.4-.3-1-.5-1.5-.5H19c-.1.1-.5.1-.6.1 0 .1 0 .1 0 0zm-.1.4c.8-.2 1.4-.3 2.2 0 1 .4 1.3 1.1 1.7 2-1.5.3-3.3-.7-3.9-2zm3.9 6.1c0 .1-.1.3-.3.3-.2.1-.4.2-.5 0-.2-.1-.2-.2-.1-.4s.2-.3.4-.3c.2.1.5.4.5.4zm.3 3c0 .2-.2.5-.3.6l-.4.1v.4c0 .1 0 .2-.3.3-.2 0-.4-.1-.6-.3-.2-.1-.7-.7-.9-.9-.2-.2-.6-.6-.7-.8-.1-.4-.4-.7-.3-.7.1 0 .4.2.6.2.1 0 1.3-.1 1.6-.1.4 0 .3.2.4.4.1.2.3.2.5.3.2 0 .4.3.4.5zm.7-2c-.2 0-.3.2-.3 0 .1-.2.4-.3.4-.3 0 .5.2.3-.1.3zm1.1-1.6c0 .3-.2 1-.6 1.4-.4.5-.2.1 0-.3s.3-.7.4-1c.1-.4 0-1.1 0-1.3 0-.2-.1-1.2-.1-1.2 0 .3.3 2.1.3 2.4zm.9 0c-.7-.6-1-1.3-1-2.2.5-.2 1.1.1 1.3.6.4.5 0 1.1-.3 1.6zm.7-1.4l-.1.1c.2-.4-.3-.7-.6-.8-.3-.1-.6-.2-1-.2v-.1c.4.1.8.1 1.2.4.1.1.3.2.3.4.2-.1.2.1.2.2zm.9-.9c0-.8-.6-1.5-1.4-1.7-.6-.2-1.1.6-1.4 1 .4-.9.6-1.4 1.7-1.2.9.1 1.4 1 1.1 1.9zM8.3 12.9zM8.4 12.8zM8.3 12.8zM8.4 12.8zM5.8 13.4c0 .1 0 .1 0 0 0 .1 0 .1 0 0zM5.8 13.5zM5.8 13.4zM5.8 13.5z"/><path d="M17.9 9.4c-.5-2.6-1.3-4.1-2.5-4.9-1.2-.8-4.9-.4-6.7 0-1.8.4-3.2 1.3-4 2.1-.9.9-1.6 2.5-1.9 3.2 0 0-.7 2.5-.8 3.3 0 .8.6 1.7 1 2.5s.7 1.1.8 1.5c.1.4 0 1.8.2 2.6s1.2 2.6 1.6 3.2c.4.5 1.5 1.8 1.9 2.3.5.5 1.1.9 1.5 1.1.4.2 1.4 0 1.8 0 .4 0 2.1.2 2.5.4.3.1.8.6.8.6s.9-.5 1.7-1.6c1.3-1.8 2.1-4.6 2.5-7.2.3-2.6.1-6.5-.4-9.1zM3.4 15.1c0-.1.1-.3.1-.3.1-.2.3-.3.4-.4.5-.2.9-.2 1.5-.2 0 0 .1.1 0 .1-.4 0-.8 0-1.1.1-.3.1-.9.4-.8.9 0-.2-.1-.2-.1-.2zm.6 1.7c-.2-.6-.6-1.4-.1-2 .3-.5 1.1-.7 1.6-.4-.2 1-.6 1.9-1.5 2.4zm1.2.3c0 .5.1.8.3 1.2.2.5.4.9 0 .3-.4-.6-.5-1.4-.5-1.7 0-.4.6-2.4.8-2.7 0 0-.2 1.1-.3 1.4-.1.2-.3 1-.3 1.5zm-1.3-4.9c-.8.3-1.4.8-1.5 1.6-.1-1.1.6-2 1.8-2 1.2 0 1.3.6 1.6 1.7-.4-.7-.9-1.6-1.9-1.3zm2 6.8c-.2-.2 0-.3 0-.4 0 0 .3.3.4.5 0 .3-.2 0-.4-.1zm4.5 1.9c-.2.2-.6.6-.8.9-.2.2-.9.8-1.2 1-.3.2-.5.3-.7.2-.3-.1-.4-.3-.4-.4-.1-.2 0-.5 0-.5l-.4-.3c-.1-.2-.2-.3-.2-.5s.3-.6.5-.6.3 0 .4-.2c.1-.2.3-.5.7-.4.4 0 1.7.3 1.9.3.2 0 .6-.2.7-.2 0 0-.4.5-.5.7zm-3-3.1s.3-.2.6-.2c.2 0 .3.2.4.4.1.2 0 .3-.2.4-.2.1-.4 0-.6-.1-.2-.1-.2-.4-.2-.5zm.9-4.9c.6-.9 1-1.8 2.2-2 .9-.2 1.6 0 2.5.3-.9 1.4-3.1 2.3-4.7 1.7zm4.8-1.9c-.4-.4-2-.5-2.7-.3-.6.2-1.1.5-1.5.9-.1.1-.8 1.4-.8 1.4-.4-.1.4-1.2.5-1.3.4-.5.9-.9 1.5-1 .8-.3 2.4-.4 3 .3-.1-.2 0 0 0 0zm-2.2-2.4c-1.8.1-2.8.8-3.8 2.2.7-1.5 1.3-2.3 3.1-2.5 1.5-.2 3 .4 4.2 1.3-1.1-.5-2.3-1.1-3.5-1z"/></svg>