<?xml version="1.0" encoding="utf-8"?>
<!-- Generator: Adobe Illustrator 22.1.0, SVG Export Plug-In . SVG Version: 6.00 Build 0)  -->
<svg version="1.1" id="圖層_1" xmlns="http://www.w3.org/2000/svg" xmlns:xlink="http://www.w3.org/1999/xlink" x="0px" y="0px"
	 viewBox="0 0 30 30" style="enable-background:new 0 0 30 30;" xml:space="preserve">
<path d="M22.9,12.6v-0.8c0-0.3,0.2-0.6,0.6-0.6s0.6,0.2,0.6,0.6v0.8c0,0.4,0.3,0.8,0.8,0.8h2.1c-0.7-2.6-2.5-4.8-5-6.3v1.4
	c0,1.1-0.9,2.1-2.1,2.1h-2.4c-0.5,0-1,0.4-1,1v1.2c0,0.3-0.2,0.6-0.6,0.6c-0.3,0-0.6-0.2-0.6-0.6v-1.2c0-1.1,0.9-2.1,2.1-2.1h2.4
	c0.5,0,1-0.4,1-1V6.5c-1.5-0.7-3.3-1.1-5.2-1.2V6c0,1.4-1.2,2.6-2.6,2.6h-2.8c-0.5,0-1,0.4-1,1c0,0.3-0.2,0.6-0.6,0.6
	C8.3,10.1,8,9.8,8,9.5c0-1.1,0.9-2.1,2.1-2.1h2.8c0.8,0,1.5-0.7,1.5-1.5V5.3C10.7,5.3,7.3,6.8,5.1,9v1.5c0,0.8,0.7,1.5,1.5,1.5H11
	c1,0,1.9,0.8,1.9,1.9c0,0.3-0.2,0.6-0.6,0.6s-0.6-0.2-0.6-0.6c0-0.4-0.3-0.8-0.8-0.8H6.6c-1.4,0-2.6-1.2-2.6-2.6v-0.2
	c-1.1,1.5-1.7,3.3-1.7,5.2c0,0,0,0,0,0c0,0.5,0.1,1,0.2,1.4h2.9c0.8,0,1.5-0.7,1.5-1.5v-0.2c0-0.3,0.2-0.6,0.6-0.6
	c0.3,0,0.6,0.2,0.6,0.6v0.2c0,1.4-1.2,2.6-2.6,2.6H3.1c0.8,1.2,2.2,2,3.8,2h3.3v-1.5c0-1.7,1.3-3,3-3h5.5c0.5,0,1-0.4,1-1v-1
	c0-0.3,0.2-0.6,0.6-0.6c0.3,0,0.6,0.2,0.6,0.6v1c0,1.1-0.9,2.1-2.1,2.1h-5.5c-1,0-1.9,0.9-1.9,1.9V20h3c0.1-1,0.9-1.7,1.9-1.7h1.2
	c0.3,0,0.6,0.2,0.6,0.6c0,0.3-0.2,0.6-0.6,0.6h-1.2c-0.4,0-0.7,0.3-0.8,0.6h2c1.5,0,2.8,1.2,2.8,2.8v1.8c3-1.2,5.4-3.4,6.4-6.1h-2.2
	c-0.4,0-0.8,0.3-0.8,0.8v0.7c0,1-0.8,1.9-1.9,1.9h-0.2c-0.3,0-0.6-0.2-0.6-0.6c0-0.3,0.2-0.6,0.6-0.6h0.2c0.4,0,0.8-0.3,0.8-0.8
	v-0.7c0-1,0.8-1.9,1.9-1.9h2.6c0.2-0.6,0.2-1.3,0.2-2c0-0.3,0-0.7-0.1-1h-2.3C23.7,14.4,22.9,13.6,22.9,12.6z"/>
</svg>
