<svg xmlns="http://www.w3.org/2000/svg" viewBox="0 0 30 30"><path d="M3.1 20.4c.5 0 .9-.4.9-.8v-.1c0-.5-.4-.9-.9-.9s-.9.4-.8.9v.1c0 .4.4.8.8.8z"/><path d="M24.1 9.1c-3-2.7-6.4-1-7.7-.2-.5.3-1 .5-1.4.6h-.3-.3c-.5-.1-1-.3-1.4-.6-1.4-.9-4.8-2.5-7.7.2-2 1.8-2.7 5.5-2.9 8.2 0 .5.3.9.8.9s.9-.3.9-.8c.2-3.4 1.1-5.9 2.4-7.1 2-1.8 4.4-.8 5.6 0 .6.4 1.3.7 2 .8.3.1.5.1.7.1s.4 0 .7-.1c.7-.1 1.3-.4 2-.8 1.2-.8 3.6-1.8 5.6 0 2.5 2.3 2.6 8.9 2.3 11 0 .4-.2.7-.4.9-.2.3-.5.5-.9.5-.8.1-2.4-.3-5.3-2.7-1.1-.9-2.4-1.4-3.8-1.4h-.3c-1.4 0-2.7.6-3.8 1.4-2.9 2.4-4.5 2.8-5.3 2.7-.4 0-.7-.2-.9-.5-.1-.1-.2-.3-.3-.4-.1-.1-.1-.3-.1-.4-.1-.5-.5-.8-1-.7-.5.1-.8.5-.7 1 0 .3.1.5.2.8.1.3.3.6.5.9.5.7 1.2 1.1 2.1 1.1h.4c1.6 0 3.7-1 6.2-3.1.8-.6 1.8-1 2.8-1h.2c1 0 2 .4 2.8 1 2.7 2.2 4.9 3.2 6.6 3.1.9-.1 1.6-.5 2.1-1.1.4-.5.7-1.1.7-1.8 0-1.9.2-9.6-3.1-12.5z"/><path d="M9.1 11.5c-.5 0-.9.4-.9.9v1.2H7c-.5 0-.9.4-.9.9s.4.9.9.9h1.2v1.2c0 .5.4.9.9.9s.9-.4.9-.9v-1.2h1.2c.5 0 .9-.4.9-.9s-.4-.9-.9-.9H9.9v-1.2c0-.5-.4-.9-.8-.9zM20.4 11.4c-.5 0-1 .4-1 1 0 .5.4 1 1 1 .5 0 1-.4 1-1 0-.5-.4-1-1-1z"/><circle cx="20.4" cy="16.5" r="1"/><path d="M18.5 13.5c-.5 0-1 .4-1 1 0 .5.4 1 1 1s1-.4 1-1-.4-1-1-1zM22.2 15.4c.5 0 1-.4 1-1 0-.5-.4-1-1-1-.5 0-1 .4-1 1 .1.6.5 1 1 1z"/></svg>