<?xml version="1.0" encoding="utf-8"?>
<!-- Generator: Adobe Illustrator 22.1.0, SVG Export Plug-In . SVG Version: 6.00 Build 0)  -->
<svg version="1.1" id="圖層_1" xmlns="http://www.w3.org/2000/svg" xmlns:xlink="http://www.w3.org/1999/xlink" x="0px" y="0px"
	 viewBox="0 0 30 30" style="enable-background:new 0 0 30 30;" xml:space="preserve">
<path d="M24,22.7c-3,4.3-8.8,5.5-13.3,2.7c-0.9-0.5-1.7-1.2-2.4-1.9c0,0,0,0,0-0.1c0-0.5,0.1-2.5,2-3.2c2.1-0.7,2.9-2.4,3-3.1
	c0.1-0.9-0.5-1.7-0.5-1.7s-1.2-0.5-2-1.5c-0.9-1-0.7-3.1-1.9-2.5c-1.3,0.8,1.6,2.3,1.9,3.5c0.4,1.4,0.4,4-3.7,6.1c0,0,1-2.7-0.3-4.8
	C4.7,12.6,5.8,10.8,8,9.9c1.5-1.1-0.2-3.1,1.8-5.3c2-2.2,4.9-2.5,7-2c2.7,0.6,2.6,1.6,3.8,2.9c1.1,1.2,0.4,1.5,1,2.4
	c0.5,0.8,1.7,1.2,1.7,1.9c0,0.6-0.9,0.4-1,0.8c0,0,0,0.2,0.1,0.3c0.1,0.1,0.2,0.4,0.1,0.5c-0.1,0.1,0.3,0.2,0.2,0.4
	c-0.1,0.2-0.2,0.3-0.1,0.7c0.1,0.3,0.3,0.8,0,1.2c-0.5,0.7-1.8-0.1-2.4,0.4c-0.4,0.3-0.9,1.2-1.1,2.4c0,0-0.3,1.2,0.9,1.2
	c1.2,0,4.1,0.1,4.8,2.3C25.1,20.7,24.8,21.7,24,22.7z"/>
</svg>
