<svg id="圖層_1" data-name="圖層 1" xmlns="http://www.w3.org/2000/svg" xmlns:xlink="http://www.w3.org/1999/xlink" viewBox="0 0 25 24.81"><defs><style>.cls-1{fill:url(#未命名漸層_2933);}</style><linearGradient id="未命名漸層_2933" x1="13" y1="24.34" x2="38" y2="24.34" gradientUnits="userSpaceOnUse"><stop offset="0.01" stop-color="#f4b4d0"/><stop offset="0.32" stop-color="#c795c1"/><stop offset="0.78" stop-color="#8a6bac"/><stop offset="1" stop-color="#725aa4"/></linearGradient></defs><title>logout_icon</title><path class="cls-1" d="M14.83,11.94H27.55a1.79,1.79,0,0,1,1.29.54,1.83,1.83,0,0,1,.54,1.29v5.45H27.5v-5.4H14.88v21H27.5v-5.4h1.88v5.45a1.84,1.84,0,0,1-1.83,1.83H14.83A1.84,1.84,0,0,1,13,34.92V13.77a1.83,1.83,0,0,1,.54-1.29,1.79,1.79,0,0,1,1.29-.54Zm8.49,15.34h8.14v2.94L38,24.34l-6.54-5.87v2.94H23.32v5.87Z" transform="translate(-13 -11.94)"/></svg>