<?xml version="1.0" encoding="utf-8"?>
<!-- Generator: Adobe Illustrator 22.1.0, SVG Export Plug-In . SVG Version: 6.00 Build 0)  -->
<svg version="1.1" id="圖層_1" xmlns="http://www.w3.org/2000/svg" xmlns:xlink="http://www.w3.org/1999/xlink" x="0px" y="0px"
	 viewBox="0 0 30 30" style="enable-background:new 0 0 30 30;" xml:space="preserve">
<style type="text/css">
	.st0{fill:none;stroke:#fff;stroke-width:1;stroke-miterlimit:10;}
</style>
<g>
	<g>
		<path class="st0" d="M27.7,13c-0.2-0.6-0.6-2.1-1.3-2.9c-0.6-0.8-1.7-1.8-3.2-2.3c-1.5-0.5-4.6-1.3-5.7-0.7
			c-1.1,0.5-2,1.7-2.7,3.8c-0.7,2.1-1.3,5.5-1.3,7.7c0.1,2.2,0.6,5.5,1.4,6.4c0.8,0.9,1.2,1.1,1.2,1.1s0.5,0.1,0.8,0
			c0.3-0.1,1.8-0.1,2.2,0c0.4,0.1,1.3,0.3,1.6,0.2c0.3-0.1,0.9-0.4,1.4-0.8c0.4-0.4,1.6-1.3,1.9-1.8c0.4-0.4,1.5-1.8,1.7-2.5
			c0.2-0.7,0.3-1.9,0.5-2.2c0.1-0.3,0.4-0.5,0.8-1.2c0.4-0.6,1-1.3,1.1-2C28,15.1,27.7,13,27.7,13z M17.8,11.2c1.2-0.7,2.7-1,4-0.5
			c1.3,0.4,1.6,1.1,2,2.4c0,0,0,0,0,0c0,0,0,0,0,0c0,0,0,0,0,0c0,0,0,0,0,0c0,0,0,0,0,0c0,0,0,0,0,0c0,0,0,0,0,0c0,0,0,0,0,0
			c0,0,0,0,0,0c0,0,0,0,0,0c0,0,0,0,0,0c0,0,0,0,0,0c0,0,0,0,0,0c0,0,0,0,0,0c0,0,0,0,0,0c0,0,0,0,0,0c0,0,0,0,0,0c0,0,0,0,0,0
			c0,0,0,0,0,0c-0.7-1.4-1.6-2.2-3.2-2.3C19.7,10.6,18.7,10.9,17.8,11.2z M19,12.6C19,12.6,19,12.6,19,12.6C19,12.6,19,12.6,19,12.6
			C19,12.6,19.1,12.6,19,12.6C19.1,12.6,19.1,12.6,19,12.6C19.1,12.6,19.1,12.6,19,12.6C19.1,12.6,19.1,12.6,19,12.6
			C19.1,12.6,19.1,12.6,19,12.6C19.1,12.6,19.1,12.6,19,12.6C19.1,12.6,19.1,12.6,19,12.6C19.1,12.6,19.1,12.6,19,12.6
			C19.1,12.6,19,12.6,19,12.6C19,12.6,19,12.6,19,12.6c0.1-0.1,0.3-0.1,0.5-0.2c0.3,0,0.4,0,0.7,0c0.5,0,1,0.1,1.4,0.4
			c0.8,0.4,1.4,1.2,1.5,2.1c0,0,0,0.1,0,0.1c0,0.1-0.1,0.1-0.2,0c0-0.8-0.5-1.6-1.2-2c-0.4-0.3-1-0.5-1.5-0.5c-0.3,0-0.4,0-0.6,0
			C19.5,12.6,19.2,12.6,19,12.6C19,12.7,19,12.7,19,12.6C19,12.6,19,12.6,19,12.6C19,12.6,19,12.6,19,12.6z M18.9,13
			c0.8-0.2,1.4-0.3,2.2,0c1,0.4,1.3,1.1,1.7,2C21.4,15.3,19.5,14.3,18.9,13z M22.9,19.1c0,0.1-0.1,0.3-0.3,0.3
			c-0.2,0.1-0.4,0.2-0.5,0c-0.2-0.1-0.2-0.2-0.1-0.4c0.1-0.2,0.2-0.3,0.4-0.3C22.5,18.8,22.9,19.1,22.9,19.1z M23.1,22.1
			c0,0.2-0.2,0.5-0.3,0.6l-0.3,0.1c0,0,0,0.2,0,0.4c0,0.1,0,0.2-0.3,0.3c-0.2,0-0.4-0.1-0.6-0.3c-0.2-0.1-0.7-0.7-0.9-0.9
			c-0.2-0.2-0.6-0.6-0.7-0.8c-0.1-0.2-0.4-0.6-0.3-0.6c0.1,0,0.4,0.2,0.6,0.2c0.1,0,1.3-0.1,1.6-0.1c0.4,0,0.3,0.2,0.4,0.4
			c0.1,0.2,0.3,0.2,0.5,0.3C22.9,21.6,23.1,21.9,23.1,22.1z M23.8,20.1c-0.2,0-0.3,0.2-0.3,0c0.1-0.2,0.4-0.3,0.4-0.3
			C23.9,20.3,24.1,20.1,23.8,20.1z M24.9,18.5c0,0.3-0.2,1-0.6,1.4c-0.4,0.5-0.2,0.1,0-0.3c0.2-0.4,0.3-0.7,0.4-1
			c0.1-0.4,0-1.1,0-1.3c0-0.2-0.1-1.2-0.1-1.2C24.6,16.4,24.9,18.2,24.9,18.5z M25.9,18.5c-0.7-0.6-1-1.3-1-2.2
			c0.5-0.2,1.1,0.1,1.3,0.6C26.5,17.4,26.1,18,25.9,18.5z M26.6,17.1c0,0-0.1,0.1-0.1,0.1c0.2-0.4-0.3-0.7-0.6-0.8
			c-0.3-0.1-0.6-0.2-1-0.2c0,0,0-0.1,0-0.1c0.4,0.1,0.8,0.1,1.2,0.4c0.1,0.1,0.3,0.2,0.3,0.4C26.5,16.8,26.6,17,26.6,17.1z
			 M27.5,16.2c0-0.8-0.6-1.5-1.4-1.7c-0.6-0.2-1.1,0.6-1.4,1c0,0,0,0,0,0c0.4-0.9,0.6-1.4,1.7-1.2C27.3,14.4,27.7,15.3,27.5,16.2z"
			/>
	</g>
	<g>
		<path class="st0" d="M9,12.7C9,12.7,9,12.7,9,12.7C9,12.7,9,12.7,9,12.7z"/>
		<path class="st0" d="M9,12.6C9,12.6,9,12.6,9,12.6L9,12.6z"/>
		<path class="st0" d="M9,12.6C9,12.6,9,12.6,9,12.6C9,12.6,9,12.6,9,12.6z"/>
		<path class="st0" d="M9,12.6C9,12.6,9,12.6,9,12.6C9,12.6,9,12.6,9,12.6z"/>
		<path class="st0" d="M6.4,13.2C6.4,13.3,6.4,13.3,6.4,13.2C6.4,13.3,6.4,13.3,6.4,13.2z"/>
		<path class="st0" d="M6.4,13.3C6.4,13.3,6.4,13.3,6.4,13.3C6.4,13.3,6.4,13.3,6.4,13.3z"/>
		<path class="st0" d="M6.4,13.2C6.4,13.2,6.4,13.2,6.4,13.2L6.4,13.2z"/>
		<path class="st0" d="M6.4,13.3C6.4,13.3,6.4,13.3,6.4,13.3C6.4,13.3,6.4,13.3,6.4,13.3z"/>
		<path class="st0" d="M18.5,9.2c-0.5-2.6-1.3-4.1-2.5-4.9c-1.2-0.8-4.9-0.4-6.7,0c-1.8,0.4-3.2,1.3-4,2.1C4.5,7.3,3.7,8.9,3.5,9.6
			c0,0-0.7,2.5-0.8,3.3c0,0.8,0.6,1.7,1,2.5c0.4,0.8,0.7,1.1,0.8,1.5c0.1,0.4,0,1.8,0.2,2.6c0.2,0.8,1.2,2.6,1.6,3.2
			c0.4,0.5,1.5,1.8,1.9,2.3c0.4,0.5,1.1,0.9,1.4,1.1c0.4,0.2,1.4,0,1.8,0c0.4,0,2.1,0.2,2.5,0.4c0.3,0.1,0.8,0.6,0.8,0.6
			s0.9-0.5,1.7-1.6c1.3-1.8,2.1-4.6,2.5-7.2C19.3,15.7,19,11.8,18.5,9.2z M4,14.9c0-0.1,0.1-0.3,0.1-0.3c0.1-0.2,0.3-0.3,0.4-0.4
			C5,13.9,5.5,13.9,6,13.9c0,0,0.1,0.1,0,0.1c-0.4,0-0.8,0-1.1,0.1C4.6,14.2,4,14.5,4.1,15C4.1,14.9,4.1,14.9,4,14.9z M4.6,16.6
			c-0.2-0.6-0.6-1.4-0.1-2c0.3-0.5,1.1-0.7,1.6-0.4C5.9,15.2,5.5,16.1,4.6,16.6z M5.9,16.9c0,0.5,0.1,0.8,0.3,1.2
			c0.2,0.5,0.4,0.9,0,0.3c-0.4-0.6-0.5-1.4-0.5-1.7c0-0.4,0.6-2.4,0.8-2.7c0,0-0.2,1.1-0.3,1.4C6,15.6,5.9,16.4,5.9,16.9z M4.6,12
			c-0.8,0.3-1.4,0.8-1.5,1.6c-0.1-1.1,0.6-2,1.8-2c1.2,0,1.3,0.6,1.6,1.7C6,12.6,5.6,11.7,4.6,12z M6.6,18.8c-0.2-0.2,0-0.3,0-0.4
			c0,0,0.3,0.3,0.4,0.5C7,19.2,6.7,18.9,6.6,18.8z M11,20.7c-0.2,0.2-0.6,0.6-0.8,0.9c-0.2,0.2-0.9,0.8-1.2,1
			c-0.3,0.2-0.5,0.3-0.7,0.2c-0.3-0.1-0.4-0.3-0.4-0.4c-0.1-0.2,0-0.5,0-0.5l-0.4-0.3c-0.1-0.2-0.2-0.3-0.2-0.5
			c0-0.2,0.3-0.6,0.5-0.6c0.2,0,0.3,0,0.4-0.2c0.1-0.2,0.3-0.5,0.7-0.4c0.4,0,1.7,0.3,1.9,0.3c0.2,0,0.6-0.2,0.7-0.2
			C11.6,20,11.2,20.5,11,20.7z M8.1,17.6c0,0,0.3-0.2,0.6-0.2c0.2,0,0.3,0.2,0.4,0.4c0.1,0.2,0,0.3-0.2,0.4c-0.2,0.1-0.4,0-0.6-0.1
			C8,18,8.1,17.7,8.1,17.6z M9,12.7c0.6-0.9,1-1.8,2.2-2c0.9-0.2,1.6,0,2.5,0.3C12.8,12.4,10.5,13.3,9,12.7z M13.7,10.8
			c-0.4-0.4-2-0.5-2.7-0.3c-0.6,0.2-1.1,0.5-1.5,0.9c-0.1,0.1-0.9,1.4-0.8,1.4c-0.4-0.1,0.4-1.2,0.5-1.3c0.4-0.5,0.9-0.9,1.5-1
			C11.5,10.2,13.1,10.1,13.7,10.8C13.6,10.6,13.8,10.8,13.7,10.8z M11.5,8.4c-1.8,0.1-2.8,0.8-3.8,2.2c0,0,0,0,0,0c0,0,0,0,0,0
			c0,0,0,0,0,0c0,0,0,0,0,0c0,0,0,0,0,0c0,0,0,0,0,0c0,0,0,0,0,0c0,0,0,0,0,0c0,0,0,0,0,0c0,0,0,0,0,0c0,0,0,0,0,0c0,0,0,0,0,0
			c0,0,0,0,0,0c0,0,0,0,0,0c0,0,0,0,0,0c0,0,0,0,0,0c0,0,0,0,0,0c0,0,0,0,0,0c0,0,0,0,0,0c0,0,0,0,0,0c0,0,0,0,0,0
			C8.5,9.1,9,8.4,10.8,8.1c1.5-0.2,3,0.4,4.2,1.3C13.9,8.9,12.7,8.4,11.5,8.4z"/>
	</g>
</g>
</svg>
