<?xml version="1.0" encoding="utf-8"?>
<!-- Generator: Adobe Illustrator 22.1.0, SVG Export Plug-In . SVG Version: 6.00 Build 0)  -->
<svg version="1.1" id="圖層_1" xmlns="http://www.w3.org/2000/svg" xmlns:xlink="http://www.w3.org/1999/xlink" x="0px" y="0px"
	 viewBox="0 0 30 30" style="enable-background:new 0 0 30 30;" xml:space="preserve">
<g>
	<circle cx="19.5" cy="5.4" r="2.8"/>
	<path d="M26.7,8.6c-0.5-0.5-1.3-0.6-1.9-0.1l-2.9,2.7l-2.7-1.9c0,0.2,0.1,0.3,0.1,0.5c0.2,1.4-0.6,2.4-0.9,2.8l2.3,1.6
		c0.3,0.2,0.6,0.3,0.9,0.3c0.3,0,0.6-0.1,0.9-0.3c0.2-0.1,0.3-0.2,0.5-0.3l3.7-3.4C27.2,10,27.2,9.1,26.7,8.6z"/>
	<path d="M9.2,16.1l-1.7,4.5c0,0,0,0,0,0l-4.7,3.9c-0.6,0.5-0.6,1.3-0.2,1.9c0.3,0.3,0.6,0.5,1,0.5c0.3,0,0.6-0.1,0.9-0.3
		c0,0,5.7-4.4,5.9-4.9l1.5-3.4C11.5,18.2,9.7,17.6,9.2,16.1z"/>
	<path d="M20.3,17.1l-5.1-1.6c0.9-1.1,1.7-2.2,2.6-3.2c0.6-0.7,1-1.4,0.9-2.4c-0.1-0.7-0.5-1.2-0.8-1.5c-0.9-0.8-2.1-1-3.2-1.1
		c-1.3-0.2-2.7-0.4-4.1-0.6c-0.3,0-0.7,0-0.9,0C9.3,7,9.3,7,9.1,7.2l-3.7,3.4c-0.5,0.5-0.6,1.3-0.1,1.9c0.3,0.3,0.6,0.4,1,0.4
		c0.3,0,0.6-0.1,0.9-0.4l3-2.7c0,0,0,0,0,0l2.4,0.4c-0.3,0.5-0.6,1.1-0.9,1.6c-0.5,0.9-1.1,1.9-1.6,2.8c-0.1,0.2-0.2,0.4-0.3,0.6
		c0,0.2,0,0.4,0,0.6c0.2,0.9,1.1,1.5,1.9,1.8c0.4,0.2,0.8,0.3,1.3,0.4c0.4,0.1,0.8,0.3,1.3,0.4c0.8,0.3,1.7,0.5,2.5,0.8
		c0.2,0.1,0.3,0.1,0.5,0.2l-2.7,2.8c-0.5,0.5-0.5,1.4,0,1.9c0.3,0.3,0.6,0.4,0.9,0.4c0.3,0,0.7-0.1,1-0.4c0,0,4.8-4.5,4.9-5
		C21.6,18.2,21.1,17.3,20.3,17.1z"/>
</g>
</svg>
