<?xml version="1.0" encoding="utf-8"?>
<!-- Generator: Adobe Illustrator 22.1.0, SVG Export Plug-In . SVG Version: 6.00 Build 0)  -->
<svg version="1.1" id="圖層_1" xmlns="http://www.w3.org/2000/svg" xmlns:xlink="http://www.w3.org/1999/xlink" x="0px" y="0px"
	 viewBox="0 0 30 30" style="enable-background:new 0 0 30 30;" xml:space="preserve">
<style type="text/css">
	.st0{fill:none;stroke:#fff;stroke-width:1;stroke-miterlimit:10;}
</style>
<g>
	<polygon class="st0" points="24,11 24,26.1 4.3,26.1 4.3,6.3 19.8,6.3 17.8,8.4 6.3,8.4 6.3,24 21.9,24 21.9,13.2 	"/>
	<g>
		
			<rect x="12.7" y="9.4" transform="matrix(0.7071 -0.7071 0.7071 0.7071 -2.8094 16.7849)" class="st0" width="12.2" height="4.7"/>
		<path class="st0" d="M23.1,4.2L22.3,5l3.3,3.3l0.8-0.8c1-1,1-2.5,0.1-3.4C25.6,3.2,24.1,3.2,23.1,4.2z"/>
		<polygon class="st0" points="12.1,15.2 10,20.1 10.6,20.6 15.4,18.6 		"/>
		<path class="st0" d="M9.5,20.6L9,21c-0.2,0.2-0.2,0.4,0,0.6c0.2,0.2,0.4,0.2,0.6,0l0.5-0.5L9.5,20.6z"/>
	</g>
</g>
</svg>
