<?xml version="1.0" encoding="utf-8"?>
<!-- Generator: Adobe Illustrator 22.1.0, SVG Export Plug-In . SVG Version: 6.00 Build 0)  -->
<svg version="1.1" id="圖層_1" xmlns="http://www.w3.org/2000/svg" xmlns:xlink="http://www.w3.org/1999/xlink" x="0px" y="0px"
	 viewBox="0 0 30 30" style="enable-background:new 0 0 30 30;" xml:space="preserve">
<g>
	<g>
		<path d="M24.3,13.9c0,0-5-3.5-6.9,2.1l-2.7-6.2L12.1,16c-2-5.6-6.9-2.1-6.9-2.1c4.7,0,3.8,6.5,3.8,6.5h5.8h5.8
			C20.5,20.5,19.6,13.9,24.3,13.9z"/>
	</g>
	<g>
		<path d="M21.4,21.8c0,0.3-0.3,0.6-0.6,0.6H8.9c-0.3,0-0.6-0.3-0.6-0.6v0c0-0.3,0.3-0.6,0.6-0.6h11.9
			C21.1,21.2,21.4,21.4,21.4,21.8L21.4,21.8z"/>
	</g>
	<g>
		<circle cx="14.7" cy="8.3" r="1"/>
	</g>
	<g>
		<circle cx="4" cy="14.1" r="1"/>
	</g>
	<g>
		<circle cx="25.4" cy="14.1" r="1"/>
	</g>
</g>
</svg>
