<?xml version="1.0" encoding="utf-8"?>
<!-- Generator: Adobe Illustrator 22.1.0, SVG Export Plug-In . SVG Version: 6.00 Build 0)  -->
<svg version="1.1" id="圖層_1" xmlns="http://www.w3.org/2000/svg" xmlns:xlink="http://www.w3.org/1999/xlink" x="0px" y="0px"
	 viewBox="0 0 30 30" style="enable-background:new 0 0 30 30;" xml:space="preserve">
<style type="text/css">
	.st0{fill:none;stroke:#7b73ad;stroke-width:1;stroke-miterlimit:10;}
</style>
<path class="st0" d="M23.5,13.7v-0.8c0-0.3,0.2-0.6,0.6-0.6c0.3,0,0.6,0.2,0.6,0.6v0.8c0,0.4,0.3,0.8,0.8,0.8h2.1
	c-0.7-2.6-2.5-4.8-5-6.3v1.4c0,1.1-0.9,2.1-2.1,2.1h-2.4c-0.5,0-1,0.4-1,1v1.2c0,0.3-0.2,0.6-0.6,0.6c-0.3,0-0.6-0.2-0.6-0.6v-1.2
	c0-1.1,0.9-2.1,2.1-2.1h2.4c0.5,0,1-0.4,1-1V7.6c-1.5-0.7-3.3-1.1-5.2-1.2v0.7c0,1.4-1.2,2.6-2.6,2.6h-2.8c-0.5,0-1,0.4-1,1
	c0,0.3-0.2,0.6-0.6,0.6s-0.6-0.2-0.6-0.6c0-1.1,0.9-2.1,2.1-2.1h2.8c0.8,0,1.5-0.7,1.5-1.5V6.4C11.3,6.4,7.9,7.8,5.7,10v1.5
	c0,0.8,0.7,1.5,1.5,1.5h4.3c1,0,1.9,0.8,1.9,1.9c0,0.3-0.2,0.6-0.6,0.6c-0.3,0-0.6-0.2-0.6-0.6c0-0.4-0.3-0.8-0.8-0.8H7.2
	c-1.4,0-2.6-1.2-2.6-2.6v-0.2c-1.1,1.5-1.7,3.3-1.7,5.2c0,0,0,0,0,0c0,0.5,0.1,1,0.2,1.4H6c0.8,0,1.5-0.7,1.5-1.5v-0.2
	c0-0.3,0.2-0.6,0.6-0.6c0.3,0,0.6,0.2,0.6,0.6v0.2C8.6,17.9,7.4,19,6,19H3.6c0.8,1.2,2.2,2,3.8,2h3.3v-1.5c0-1.7,1.3-3,3-3h5.5
	c0.5,0,1-0.4,1-1v-1c0-0.3,0.2-0.6,0.6-0.6c0.3,0,0.6,0.2,0.6,0.6v1c0,1.1-0.9,2.1-2.1,2.1h-5.5c-1,0-1.9,0.9-1.9,1.9v1.5h3
	c0.1-1,0.9-1.7,1.9-1.7h1.2c0.3,0,0.6,0.2,0.6,0.6s-0.2,0.6-0.6,0.6h-1.2c-0.4,0-0.7,0.3-0.8,0.6h2c1.5,0,2.8,1.2,2.8,2.8v1.8
	c3-1.2,5.4-3.4,6.4-6.1h-2.2c-0.4,0-0.8,0.3-0.8,0.8V21c0,1-0.8,1.9-1.9,1.9H22c-0.3,0-0.6-0.2-0.6-0.6s0.2-0.6,0.6-0.6h0.2
	c0.4,0,0.8-0.3,0.8-0.8v-0.7c0-1,0.8-1.9,1.9-1.9h2.6c0.2-0.6,0.2-1.3,0.2-2c0-0.3,0-0.7-0.1-1h-2.3C24.3,15.5,23.5,14.7,23.5,13.7z
	"/>
</svg>
