<?xml version="1.0" encoding="utf-8"?>
<!-- Generator: Adobe Illustrator 22.1.0, SVG Export Plug-In . SVG Version: 6.00 Build 0)  -->
<svg version="1.1" id="圖層_1" xmlns="http://www.w3.org/2000/svg" xmlns:xlink="http://www.w3.org/1999/xlink" x="0px" y="0px"
	 viewBox="0 0 40 40" style="enable-background:new 0 0 40 40;" xml:space="preserve">
<style type="text/css">
	.st0{fill:none;stroke:#fff;stroke-width:1.5;stroke-miterlimit:10;}
</style>
<path class="st0" d="M31.5,32.2c-3.8,5.6-11.4,7.1-17.1,3.5c-1.1-0.7-2.2-1.5-3.1-2.4c0,0,0,0,0-0.1c0-0.6,0.1-3.2,2.5-4.1
	c2.7-0.9,3.8-3.1,3.8-4C17.7,24,17,23,17,23s-1.5-0.6-2.6-1.9c-1.1-1.3-0.9-4-2.4-3.2c-1.6,1.1,2.1,3,2.5,4.5
	c0.5,1.8,0.5,5.2-4.8,7.8c0,0,1.3-3.4-0.3-6.2c-2.8-4.8-1.4-7.1,1.4-8.2c2-1.5-0.3-4,2.3-6.9s6.3-3.3,9-2.6c3.4,0.8,3.4,2.1,4.9,3.8
	c1.4,1.5,0.5,1.9,1.3,3.1c0.6,1,2.2,1.6,2.2,2.4c0,0.8-1.2,0.6-1.3,1c0,0,0,0.3,0.2,0.4c0.2,0.1,0.2,0.5,0.1,0.6
	c-0.1,0.1,0.4,0.2,0.2,0.6c-0.1,0.3-0.3,0.4-0.1,0.9c0.2,0.4,0.4,1,0,1.5c-0.6,0.9-2.3-0.1-3.1,0.5c-0.5,0.3-1.1,1.5-1.4,3.1
	c0,0-0.4,1.6,1.1,1.6c1.6,0,5.2,0.1,6.1,2.9C32.9,29.6,32.4,30.9,31.5,32.2z"/>
</svg>
