<?xml version="1.0" encoding="utf-8"?>
<!-- Generator: Adobe Illustrator 22.1.0, SVG Export Plug-In . SVG Version: 6.00 Build 0)  -->
<svg version="1.1" id="圖層_1" xmlns="http://www.w3.org/2000/svg" xmlns:xlink="http://www.w3.org/1999/xlink" x="0px" y="0px"
	 viewBox="0 0 40 40" style="enable-background:new 0 0 40 40;" xml:space="preserve">
<style type="text/css">
	.st0{fill:none;stroke:#7b73ad;stroke-width:1.5;stroke-miterlimit:10;}
</style>
<g>
	<path class="st0" d="M14.9,15.6c0,0.6-0.5,1.1-1.1,1.1H9.7c-0.6,0-1.1-0.5-1.1-1.1v-4.1c0-0.6,0.5-1.1,1.1-1.1h4.1
		c0.6,0,1.1,0.5,1.1,1.1V15.6z"/>
	<path class="st0" d="M23.2,15.6c0,0.6-0.5,1.1-1.1,1.1h-4.1c-0.6,0-1.1-0.5-1.1-1.1v-4.1c0-0.6,0.5-1.1,1.1-1.1h4.1
		c0.6,0,1.1,0.5,1.1,1.1V15.6z"/>
	<path class="st0" d="M31.4,15.6c0,0.6-0.5,1.1-1.1,1.1h-4.1c-0.6,0-1.1-0.5-1.1-1.1v-4.1c0-0.6,0.5-1.1,1.1-1.1h4.1
		c0.6,0,1.1,0.5,1.1,1.1V15.6z"/>
	<path class="st0" d="M14.9,23.8c0,0.6-0.5,1.1-1.1,1.1H9.7c-0.6,0-1.1-0.5-1.1-1.1v-4.1c0-0.6,0.5-1.1,1.1-1.1h4.1
		c0.6,0,1.1,0.5,1.1,1.1V23.8z"/>
	<path class="st0" d="M23.2,23.8c0,0.6-0.5,1.1-1.1,1.1h-4.1c-0.6,0-1.1-0.5-1.1-1.1v-4.1c0-0.6,0.5-1.1,1.1-1.1h4.1
		c0.6,0,1.1,0.5,1.1,1.1V23.8z"/>
	<path class="st0" d="M31.4,23.8c0,0.6-0.5,1.1-1.1,1.1h-4.1c-0.6,0-1.1-0.5-1.1-1.1v-4.1c0-0.6,0.5-1.1,1.1-1.1h4.1
		c0.6,0,1.1,0.5,1.1,1.1V23.8z"/>
	<path class="st0" d="M14.9,32.1c0,0.6-0.5,1.1-1.1,1.1H9.7c-0.6,0-1.1-0.5-1.1-1.1v-4.1c0-0.6,0.5-1.1,1.1-1.1h4.1
		c0.6,0,1.1,0.5,1.1,1.1V32.1z"/>
	<path class="st0" d="M23.2,32.1c0,0.6-0.5,1.1-1.1,1.1h-4.1c-0.6,0-1.1-0.5-1.1-1.1v-4.1c0-0.6,0.5-1.1,1.1-1.1h4.1
		c0.6,0,1.1,0.5,1.1,1.1V32.1z"/>
	<path class="st0" d="M31.4,32.1c0,0.6-0.5,1.1-1.1,1.1h-4.1c-0.6,0-1.1-0.5-1.1-1.1v-4.1c0-0.6,0.5-1.1,1.1-1.1h4.1
		c0.6,0,1.1,0.5,1.1,1.1V32.1z"/>
</g>
</svg>
