<?xml version="1.0" encoding="utf-8"?>
<!-- Generator: Adobe Illustrator 22.1.0, SVG Export Plug-In . SVG Version: 6.00 Build 0)  -->
<svg version="1.1" id="圖層_1" xmlns="http://www.w3.org/2000/svg" xmlns:xlink="http://www.w3.org/1999/xlink" x="0px" y="0px"
	 viewBox="0 0 30 30" style="enable-background:new 0 0 30 30;" xml:space="preserve">
<g>
	<path d="M9.6,9.1c0,0.6-0.5,1.1-1.1,1.1H4.4c-0.6,0-1.1-0.5-1.1-1.1V4.9c0-0.6,0.5-1.1,1.1-1.1h4.1c0.6,0,1.1,0.5,1.1,1.1V9.1z"/>
	<path d="M17.9,9.1c0,0.6-0.5,1.1-1.1,1.1h-4.1c-0.6,0-1.1-0.5-1.1-1.1V4.9c0-0.6,0.5-1.1,1.1-1.1h4.1c0.6,0,1.1,0.5,1.1,1.1V9.1z"
		/>
	<path d="M26.1,9.1c0,0.6-0.5,1.1-1.1,1.1h-4.1c-0.6,0-1.1-0.5-1.1-1.1V4.9c0-0.6,0.5-1.1,1.1-1.1H25c0.6,0,1.1,0.5,1.1,1.1V9.1z"/>
	<path d="M9.6,17.3c0,0.6-0.5,1.1-1.1,1.1H4.4c-0.6,0-1.1-0.5-1.1-1.1v-4.1c0-0.6,0.5-1.1,1.1-1.1h4.1c0.6,0,1.1,0.5,1.1,1.1V17.3z"
		/>
	<path d="M17.9,17.3c0,0.6-0.5,1.1-1.1,1.1h-4.1c-0.6,0-1.1-0.5-1.1-1.1v-4.1c0-0.6,0.5-1.1,1.1-1.1h4.1c0.6,0,1.1,0.5,1.1,1.1V17.3
		z"/>
	<path d="M26.1,17.3c0,0.6-0.5,1.1-1.1,1.1h-4.1c-0.6,0-1.1-0.5-1.1-1.1v-4.1c0-0.6,0.5-1.1,1.1-1.1H25c0.6,0,1.1,0.5,1.1,1.1V17.3z
		"/>
	<path d="M9.6,25.6c0,0.6-0.5,1.1-1.1,1.1H4.4c-0.6,0-1.1-0.5-1.1-1.1v-4.1c0-0.6,0.5-1.1,1.1-1.1h4.1c0.6,0,1.1,0.5,1.1,1.1V25.6z"
		/>
	<path d="M17.9,25.6c0,0.6-0.5,1.1-1.1,1.1h-4.1c-0.6,0-1.1-0.5-1.1-1.1v-4.1c0-0.6,0.5-1.1,1.1-1.1h4.1c0.6,0,1.1,0.5,1.1,1.1V25.6
		z"/>
	<path d="M26.1,25.6c0,0.6-0.5,1.1-1.1,1.1h-4.1c-0.6,0-1.1-0.5-1.1-1.1v-4.1c0-0.6,0.5-1.1,1.1-1.1H25c0.6,0,1.1,0.5,1.1,1.1V25.6z
		"/>
</g>
</svg>
