<?xml version="1.0" encoding="utf-8"?>
<!-- Generator: Adobe Illustrator 22.1.0, SVG Export Plug-In . SVG Version: 6.00 Build 0)  -->
<svg version="1.1" id="圖層_1" xmlns="http://www.w3.org/2000/svg" xmlns:xlink="http://www.w3.org/1999/xlink" x="0px" y="0px"
	 viewBox="0 0 40 40" style="enable-background:new 0 0 40 40;" xml:space="preserve">
<style type="text/css">
	.st0{fill-rule:evenodd;clip-rule:evenodd;fill:none;stroke:#7b73ad;stroke-width:1;stroke-miterlimit:10;}
</style>
<path class="st0" d="M24.2,21.4v9.9c0,1.5,2.6,1.5,2.6,0v-9.9C26.8,19.9,24.2,19.9,24.2,21.4L24.2,21.4z M15.8,21.4v9.9
	c0,1.5-2.6,1.5-2.6,0v-9.9C13.2,19.9,15.8,19.9,15.8,21.4L15.8,21.4z M27,22.2v8.3c0,1,2,1,2,0v-8.3C29,21.2,27,21.2,27,22.2
	L27,22.2z M13,22.2v8.3c0,1-2,1-2,0v-8.3C11.1,21.2,13,21.2,13,22.2L13,22.2z M8.7,21.7c-0.1,0.9,0,2.2,0.9,3.2
	c-0.1,0.5-0.1,1-0.1,1.4c0,0.1,0,0.2,0,0.4c-1.9-1.4-1.7-4-1.5-5.3C8.2,21.5,8.5,21.7,8.7,21.7L8.7,21.7z M31.3,21.7
	c0.1,0.9,0.1,2.2-0.9,3.2c0.1,0.5,0.1,1,0.1,1.4c0,0.1,0,0.2,0,0.4c1.9-1.4,1.7-4,1.5-5.3C31.8,21.5,31.5,21.7,31.3,21.7L31.3,21.7z
	 M30.5,18v0.8c-0.5,0.2-0.9,0.7-0.9,1.3c0,0.8,0.6,1.4,1.4,1.4c0.8,0,1.4-0.6,1.4-1.4c0-0.6-0.4-1.1-0.9-1.3V18H30.5z M9.5,18.8
	c0.5,0.2,0.9,0.7,0.9,1.3c0,0.8-0.6,1.4-1.4,1.4c-0.8,0-1.4-0.6-1.4-1.4c0-0.6,0.4-1.1,0.9-1.3V18h1V18.8z M8.2,17.8
	c0.6,0,1.1,0,1.7,0c2.6-11.7,17.7-11.7,20.3,0c0.6,0,1.1,0,1.7,0C29.6,2.4,10.4,2.3,8.2,17.8L8.2,17.8z M9.7,17.7L9.7,17.7
	C12.5,6,27.5,6,30.3,17.7h0.1C28.2,4.7,11.8,4.7,9.7,17.7L9.7,17.7z M29.1,30.3c0.7-0.5,1.3-2.1,1.3-4s-0.5-3.5-1.3-4V30.3z
	 M10.9,30.3c-0.7-0.5-1.3-2.1-1.3-4s0.5-3.5,1.3-4V30.3z"/>
</svg>
