<?xml version="1.0" encoding="utf-8"?>
<!-- Generator: Adobe Illustrator 22.1.0, SVG Export Plug-In . SVG Version: 6.00 Build 0)  -->
<svg version="1.1" id="圖層_1" xmlns="http://www.w3.org/2000/svg" xmlns:xlink="http://www.w3.org/1999/xlink" x="0px" y="0px"
	 viewBox="0 0 40 40" style="enable-background:new 0 0 40 40;" xml:space="preserve">
<style type="text/css">
	.st0{fill:none;stroke:#7b73ad;stroke-width:1;stroke-miterlimit:10;}
</style>
<path class="st0" d="M31.6,22.8l-9.6-5.6c0.5-1.3,0.2-2.7-0.8-3.7L26.7,6l-6.3,7c-0.1,0-0.1-0.1-0.2-0.1c-0.4-0.2-0.8-0.4-1.2-0.5
	l-0.3-7.5l-0.5,7.5c-1.1,0-2.1,0.5-2.7,1.3l-5.1-3c-0.1-0.1-0.3-0.1-0.4-0.1c-0.4,0-0.8,0.4-0.8,0.8v19.1L12,15.8l13.9,7.8
	l-12.6,7.3v-10l-4.1,15c0,0.5,0.4,0.8,0.8,0.8c0.1,0,0.3,0,0.4-0.1l13-7.5l8.2-4.7C32.1,24,32.1,23.1,31.6,22.8z"/>
</svg>
