<?xml version="1.0" encoding="utf-8"?>
<!-- Generator: Adobe Illustrator 22.1.0, SVG Export Plug-In . SVG Version: 6.00 Build 0)  -->
<svg version="1.1" id="圖層_1" xmlns="http://www.w3.org/2000/svg" xmlns:xlink="http://www.w3.org/1999/xlink" x="0px" y="0px"
	 viewBox="0 0 30 30" style="enable-background:new 0 0 30 30;" xml:space="preserve">
<g>
	<g>
		<path d="M27,13.2c-0.2-0.6-0.6-2.1-1.3-2.9c-0.6-0.8-1.7-1.8-3.2-2.3c-1.5-0.5-4.6-1.3-5.7-0.7c-1.1,0.5-2,1.7-2.7,3.8
			c-0.7,2.1-1.3,5.5-1.3,7.7c0.1,2.2,0.6,5.5,1.4,6.4c0.8,0.9,1.2,1.1,1.2,1.1s0.5,0.1,0.8,0c0.3-0.1,1.8-0.1,2.2,0
			c0.4,0.1,1.3,0.3,1.6,0.2c0.3-0.1,0.9-0.4,1.4-0.8c0.4-0.4,1.6-1.3,1.9-1.8c0.4-0.4,1.5-1.8,1.7-2.5c0.2-0.7,0.3-1.9,0.5-2.2
			c0.1-0.3,0.4-0.5,0.8-1.2c0.4-0.6,1-1.3,1.1-2C27.4,15.3,27,13.2,27,13.2z M17.1,11.4c1.2-0.7,2.7-1,4-0.5c1.3,0.4,1.6,1.1,2,2.4
			c0,0,0,0,0,0c0,0,0,0,0,0c0,0,0,0,0,0c0,0,0,0,0,0c0,0,0,0,0,0c0,0,0,0,0,0c0,0,0,0,0,0c0,0,0,0,0,0c0,0,0,0,0,0c0,0,0,0,0,0
			c0,0,0,0,0,0c0,0,0,0,0,0c0,0,0,0,0,0c0,0,0,0,0,0c0,0,0,0,0,0c0,0,0,0,0,0c0,0,0,0,0,0c0,0,0,0,0,0c0,0,0,0,0,0
			c-0.7-1.4-1.6-2.2-3.2-2.3C19,10.8,18,11.1,17.1,11.4z M18.4,12.8C18.4,12.8,18.4,12.8,18.4,12.8C18.4,12.8,18.4,12.8,18.4,12.8
			C18.4,12.8,18.4,12.8,18.4,12.8C18.4,12.8,18.4,12.8,18.4,12.8C18.4,12.8,18.4,12.8,18.4,12.8C18.5,12.8,18.5,12.8,18.4,12.8
			C18.5,12.8,18.5,12.8,18.4,12.8C18.5,12.8,18.5,12.8,18.4,12.8C18.4,12.8,18.4,12.8,18.4,12.8C18.4,12.8,18.4,12.8,18.4,12.8
			C18.4,12.8,18.4,12.8,18.4,12.8C18.4,12.8,18.4,12.8,18.4,12.8c0.1-0.1,0.3-0.1,0.5-0.2c0.3,0,0.4,0,0.7,0c0.5,0,1,0.1,1.4,0.4
			c0.8,0.4,1.4,1.2,1.5,2.1c0,0,0,0.1,0,0.1c0,0.1-0.1,0.1-0.2,0c0-0.8-0.5-1.6-1.2-2c-0.4-0.3-1-0.5-1.5-0.5c-0.3,0-0.4,0-0.6,0
			C18.9,12.8,18.5,12.8,18.4,12.8C18.4,12.9,18.4,12.9,18.4,12.8C18.4,12.8,18.4,12.8,18.4,12.8C18.4,12.8,18.4,12.8,18.4,12.8z
			 M18.3,13.2c0.8-0.2,1.4-0.3,2.2,0c1,0.4,1.3,1.1,1.7,2C20.7,15.5,18.9,14.5,18.3,13.2z M22.2,19.3c0,0.1-0.1,0.3-0.3,0.3
			c-0.2,0.1-0.4,0.2-0.5,0c-0.2-0.1-0.2-0.2-0.1-0.4c0.1-0.2,0.2-0.3,0.4-0.3C21.9,19,22.2,19.3,22.2,19.3z M22.5,22.3
			c0,0.2-0.2,0.5-0.3,0.6L21.8,23c0,0,0,0.2,0,0.4c0,0.1,0,0.2-0.3,0.3c-0.2,0-0.4-0.1-0.6-0.3c-0.2-0.1-0.7-0.7-0.9-0.9
			c-0.2-0.2-0.6-0.6-0.7-0.8C19.2,21.3,18.9,21,19,21c0.1,0,0.4,0.2,0.6,0.2c0.1,0,1.3-0.1,1.6-0.1c0.4,0,0.3,0.2,0.4,0.4
			c0.1,0.2,0.3,0.2,0.5,0.3C22.3,21.8,22.5,22.1,22.5,22.3z M23.2,20.3c-0.2,0-0.3,0.2-0.3,0c0.1-0.2,0.4-0.3,0.4-0.3
			C23.3,20.5,23.5,20.3,23.2,20.3z M24.3,18.7c0,0.3-0.2,1-0.6,1.4c-0.4,0.5-0.2,0.1,0-0.3c0.2-0.4,0.3-0.7,0.4-1
			c0.1-0.4,0-1.1,0-1.3c0-0.2-0.1-1.2-0.1-1.2C24,16.6,24.3,18.4,24.3,18.7z M25.2,18.7c-0.7-0.6-1-1.3-1-2.2
			c0.5-0.2,1.1,0.1,1.3,0.6C25.9,17.6,25.5,18.2,25.2,18.7z M25.9,17.3c0,0-0.1,0.1-0.1,0.1c0.2-0.4-0.3-0.7-0.6-0.8
			c-0.3-0.1-0.6-0.2-1-0.2c0,0,0-0.1,0-0.1c0.4,0.1,0.8,0.1,1.2,0.4c0.1,0.1,0.3,0.2,0.3,0.4C25.9,17,25.9,17.2,25.9,17.3z
			 M26.8,16.4c0-0.8-0.6-1.5-1.4-1.7c-0.6-0.2-1.1,0.6-1.4,1c0,0,0,0,0,0c0.4-0.9,0.6-1.4,1.7-1.2C26.6,14.6,27.1,15.5,26.8,16.4z"
			/>
	</g>
	<g>
		<path d="M8.3,12.9C8.3,12.9,8.3,12.9,8.3,12.9C8.3,12.9,8.3,12.9,8.3,12.9z"/>
		<path d="M8.4,12.8C8.4,12.8,8.4,12.8,8.4,12.8L8.4,12.8z"/>
		<path d="M8.3,12.8C8.3,12.8,8.3,12.8,8.3,12.8C8.3,12.8,8.3,12.8,8.3,12.8z"/>
		<path d="M8.4,12.8C8.4,12.8,8.4,12.8,8.4,12.8C8.4,12.8,8.4,12.8,8.4,12.8z"/>
		<path d="M5.8,13.4C5.8,13.5,5.8,13.5,5.8,13.4C5.8,13.5,5.8,13.5,5.8,13.4z"/>
		<path d="M5.8,13.5C5.8,13.5,5.8,13.5,5.8,13.5C5.8,13.5,5.8,13.5,5.8,13.5z"/>
		<path d="M5.8,13.4C5.8,13.4,5.8,13.4,5.8,13.4L5.8,13.4z"/>
		<path d="M5.8,13.5C5.8,13.5,5.8,13.5,5.8,13.5C5.8,13.5,5.8,13.5,5.8,13.5z"/>
		<path d="M17.9,9.4c-0.5-2.6-1.3-4.1-2.5-4.9c-1.2-0.8-4.9-0.4-6.7,0c-1.8,0.4-3.2,1.3-4,2.1C3.8,7.5,3.1,9.1,2.8,9.8
			c0,0-0.7,2.5-0.8,3.3c0,0.8,0.6,1.7,1,2.5c0.4,0.8,0.7,1.1,0.8,1.5c0.1,0.4,0,1.8,0.2,2.6c0.2,0.8,1.2,2.6,1.6,3.2
			c0.4,0.5,1.5,1.8,1.9,2.3C8,25.7,8.6,26.1,9,26.3c0.4,0.2,1.4,0,1.8,0c0.4,0,2.1,0.2,2.5,0.4c0.3,0.1,0.8,0.6,0.8,0.6
			s0.9-0.5,1.7-1.6c1.3-1.8,2.1-4.6,2.5-7.2C18.6,15.9,18.4,12,17.9,9.4z M3.4,15.1c0-0.1,0.1-0.3,0.1-0.3c0.1-0.2,0.3-0.3,0.4-0.4
			c0.5-0.2,0.9-0.2,1.5-0.2c0,0,0.1,0.1,0,0.1c-0.4,0-0.8,0-1.1,0.1c-0.3,0.1-0.9,0.4-0.8,0.9C3.5,15.1,3.4,15.1,3.4,15.1z M4,16.8
			c-0.2-0.6-0.6-1.4-0.1-2c0.3-0.5,1.1-0.7,1.6-0.4C5.3,15.4,4.9,16.3,4,16.8z M5.2,17.1c0,0.5,0.1,0.8,0.3,1.2
			c0.2,0.5,0.4,0.9,0,0.3C5.1,18,5,17.2,5,16.9c0-0.4,0.6-2.4,0.8-2.7c0,0-0.2,1.1-0.3,1.4C5.4,15.8,5.2,16.6,5.2,17.1z M3.9,12.2
			c-0.8,0.3-1.4,0.8-1.5,1.6c-0.1-1.1,0.6-2,1.8-2c1.2,0,1.3,0.6,1.6,1.7C5.4,12.8,4.9,11.9,3.9,12.2z M5.9,19c-0.2-0.2,0-0.3,0-0.4
			c0,0,0.3,0.3,0.4,0.5C6.3,19.4,6.1,19.1,5.9,19z M10.4,20.9c-0.2,0.2-0.6,0.6-0.8,0.9c-0.2,0.2-0.9,0.8-1.2,1
			c-0.3,0.2-0.5,0.3-0.7,0.2c-0.3-0.1-0.4-0.3-0.4-0.4c-0.1-0.2,0-0.5,0-0.5l-0.4-0.3c-0.1-0.2-0.2-0.3-0.2-0.5
			c0-0.2,0.3-0.6,0.5-0.6c0.2,0,0.3,0,0.4-0.2c0.1-0.2,0.3-0.5,0.7-0.4c0.4,0,1.7,0.3,1.9,0.3c0.2,0,0.6-0.2,0.7-0.2
			C10.9,20.2,10.5,20.7,10.4,20.9z M7.4,17.8c0,0,0.3-0.2,0.6-0.2c0.2,0,0.3,0.2,0.4,0.4c0.1,0.2,0,0.3-0.2,0.4
			c-0.2,0.1-0.4,0-0.6-0.1C7.4,18.2,7.4,17.9,7.4,17.8z M8.3,12.9c0.6-0.9,1-1.8,2.2-2c0.9-0.2,1.6,0,2.5,0.3
			C12.1,12.6,9.9,13.5,8.3,12.9z M13.1,11c-0.4-0.4-2-0.5-2.7-0.3c-0.6,0.2-1.1,0.5-1.5,0.9C8.8,11.7,8.1,13,8.1,13
			c-0.4-0.1,0.4-1.2,0.5-1.3c0.4-0.5,0.9-0.9,1.5-1C10.9,10.4,12.5,10.3,13.1,11C13,10.8,13.1,11,13.1,11z M10.9,8.6
			c-1.8,0.1-2.8,0.8-3.8,2.2c0,0,0,0,0,0c0,0,0,0,0,0c0,0,0,0,0,0c0,0,0,0,0,0c0,0,0,0,0,0c0,0,0,0,0,0c0,0,0,0,0,0c0,0,0,0,0,0
			c0,0,0,0,0,0c0,0,0,0,0,0c0,0,0,0,0,0c0,0,0,0,0,0c0,0,0,0,0,0c0,0,0,0,0,0c0,0,0,0,0,0c0,0,0,0,0,0c0,0,0,0,0,0c0,0,0,0,0,0
			c0,0,0,0,0,0c0,0,0,0,0,0c0,0,0,0,0,0c0.7-1.5,1.3-2.3,3.1-2.5c1.5-0.2,3,0.4,4.2,1.3C13.3,9.1,12.1,8.5,10.9,8.6z"/>
	</g>
</g>
</svg>
