<?xml version="1.0" encoding="utf-8"?>
<!-- Generator: Adobe Illustrator 22.1.0, SVG Export Plug-In . SVG Version: 6.00 Build 0)  -->
<svg version="1.1" id="圖層_1" xmlns="http://www.w3.org/2000/svg" xmlns:xlink="http://www.w3.org/1999/xlink" x="0px" y="0px"
	 viewBox="0 0 30 30" style="enable-background:new 0 0 30 30;" xml:space="preserve">
<g>
	<polygon points="23,11.3 23,26.3 3.3,26.3 3.3,6.6 18.8,6.6 16.7,8.6 5.2,8.6 5.2,24.2 20.8,24.2 20.8,13.5 	"/>
	<g>
		<rect x="11.7" y="9.6" transform="matrix(0.7071 -0.7071 0.7071 0.7071 -3.2785 16.1039)" width="12.2" height="4.7"/>
		<path d="M22,4.4l-0.8,0.8l3.3,3.3l0.8-0.8c1-1,1-2.5,0.1-3.4C24.5,3.4,23,3.5,22,4.4z"/>
		<polygon points="11,15.5 8.9,20.3 9.5,20.9 14.3,18.8 		"/>
		<path d="M8.5,20.8L8,21.3c-0.2,0.2-0.2,0.4,0,0.6c0.2,0.2,0.4,0.2,0.6,0L9,21.4L8.5,20.8z"/>
	</g>
</g>
</svg>
