<?xml version="1.0" encoding="utf-8"?>
<!-- Generator: Adobe Illustrator 22.1.0, SVG Export Plug-In . SVG Version: 6.00 Build 0)  -->
<svg version="1.1" id="圖層_1" xmlns="http://www.w3.org/2000/svg" xmlns:xlink="http://www.w3.org/1999/xlink" x="0px" y="0px"
	 viewBox="0 0 30 30" style="enable-background:new 0 0 30 30;" xml:space="preserve">
<style type="text/css">
	.st0{fill:none;stroke:#231815;stroke-width:0.1;stroke-miterlimit:10;}
</style>
<g>
	<g>
		<path class="st0" d="M24.9,13.9c0,0-5-3.5-6.9,2.1l-2.7-6.2L12.7,16c-2-5.6-6.9-2.1-6.9-2.1c4.7,0,3.8,6.5,3.8,6.5h5.8h5.8
			C21.1,20.4,20.2,13.9,24.9,13.9z"/>
	</g>
	<g>
		<path class="st0" d="M22,21.7c0,0.3-0.3,0.6-0.6,0.6H9.5c-0.3,0-0.6-0.3-0.6-0.6v0c0-0.3,0.3-0.6,0.6-0.6h11.9
			C21.7,21.1,22,21.4,22,21.7L22,21.7z"/>
	</g>
	<g>
		<circle class="st0" cx="15.3" cy="8.3" r="1"/>
	</g>
	<g>
		<circle class="st0" cx="4.6" cy="14.1" r="1"/>
	</g>
	<g>
		<circle class="st0" cx="26" cy="14.1" r="1"/>
	</g>
</g>
</svg>
