<?xml version="1.0" encoding="utf-8"?>
<!-- Generator: Adobe Illustrator 22.1.0, SVG Export Plug-In . SVG Version: 6.00 Build 0)  -->
<svg version="1.1" id="圖層_1" xmlns="http://www.w3.org/2000/svg" xmlns:xlink="http://www.w3.org/1999/xlink" x="0px" y="0px"
	 viewBox="0 0 30 30" style="enable-background:new 0 0 30 30;" xml:space="preserve">
<g id="Element_7_">
	<path d="M3.1,20.4C3.1,20.4,3.1,20.4,3.1,20.4C3.6,20.4,4,20,4,19.6l0-0.1c0-0.5-0.4-0.9-0.9-0.9c0,0,0,0,0,0
		c-0.5,0-0.9,0.4-0.8,0.9l0,0.1C2.3,20,2.7,20.4,3.1,20.4z"/>
	<path d="M24.1,9.1c-3-2.7-6.4-1-7.7-0.2c-0.5,0.3-1,0.5-1.4,0.6c-0.2,0-0.3,0-0.3,0c0,0-0.1,0-0.3,0c-0.5-0.1-1-0.3-1.4-0.6
		C11.6,8,8.2,6.4,5.3,9.1c-2,1.8-2.7,5.5-2.9,8.2c0,0.5,0.3,0.9,0.8,0.9c0.5,0,0.9-0.3,0.9-0.8c0.2-3.4,1.1-5.9,2.4-7.1
		c2-1.8,4.4-0.8,5.6,0c0.6,0.4,1.3,0.7,2,0.8c0.3,0.1,0.5,0.1,0.7,0.1s0.4,0,0.7-0.1c0.7-0.1,1.3-0.4,2-0.8c1.2-0.8,3.6-1.8,5.6,0
		c2.5,2.3,2.6,8.9,2.3,11c0,0.4-0.2,0.7-0.4,0.9c-0.2,0.3-0.5,0.5-0.9,0.5c-0.8,0.1-2.4-0.3-5.3-2.7c-1.1-0.9-2.4-1.4-3.8-1.4
		c-0.1,0-0.2,0-0.3,0c-1.4,0-2.7,0.6-3.8,1.4c-2.9,2.4-4.5,2.8-5.3,2.7c-0.4,0-0.7-0.2-0.9-0.5c-0.1-0.1-0.2-0.3-0.3-0.4
		c-0.1-0.1-0.1-0.3-0.1-0.4c-0.1-0.5-0.5-0.8-1-0.7c-0.5,0.1-0.8,0.5-0.7,1c0,0.3,0.1,0.5,0.2,0.8c0.1,0.3,0.3,0.6,0.5,0.9
		c0.5,0.7,1.2,1.1,2.1,1.1c0.1,0,0.3,0,0.4,0c1.6,0,3.7-1,6.2-3.1c0.8-0.6,1.8-1,2.8-1c0.1,0,0.1,0,0.2,0c1,0,2,0.4,2.8,1
		c2.7,2.2,4.9,3.2,6.6,3.1c0.9-0.1,1.6-0.5,2.1-1.1c0.4-0.5,0.7-1.1,0.7-1.8C27.2,19.7,27.4,12,24.1,9.1z"/>
	<path d="M9.1,11.5c-0.5,0-0.9,0.4-0.9,0.9v1.2H7c-0.5,0-0.9,0.4-0.9,0.9s0.4,0.9,0.9,0.9h1.2v1.2c0,0.5,0.4,0.9,0.9,0.9
		c0.5,0,0.9-0.4,0.9-0.9v-1.2h1.2c0.5,0,0.9-0.4,0.9-0.9s-0.4-0.9-0.9-0.9H9.9v-1.2C9.9,11.9,9.5,11.5,9.1,11.5z"/>
	<path d="M20.4,11.4c-0.5,0-1,0.4-1,1c0,0.5,0.4,1,1,1c0.5,0,1-0.4,1-1C21.4,11.9,21,11.4,20.4,11.4z"/>
	<circle cx="20.4" cy="16.5" r="1"/>
	<path d="M18.5,13.5c-0.5,0-1,0.4-1,1c0,0.5,0.4,1,1,1s1-0.4,1-1C19.5,13.9,19.1,13.5,18.5,13.5z"/>
	<path d="M22.2,15.4c0.5,0,1-0.4,1-1c0-0.5-0.4-1-1-1c-0.5,0-1,0.4-1,1C21.3,15,21.7,15.4,22.2,15.4z"/>
</g>
</svg>
