<?xml version="1.0" encoding="utf-8"?>
<!-- Generator: Adobe Illustrator 22.1.0, SVG Export Plug-In . SVG Version: 6.00 Build 0)  -->
<svg version="1.1" id="圖層_1" xmlns="http://www.w3.org/2000/svg" xmlns:xlink="http://www.w3.org/1999/xlink" x="0px" y="0px"
	 viewBox="0 0 30 30" style="enable-background:new 0 0 30 30;" xml:space="preserve">
<style type="text/css">
	.st0{fill:none;stroke:#231815;stroke-width:0.1;stroke-miterlimit:10;}
</style>
<g id="Element_1_">
	<path class="st0" d="M3.7,20C3.7,20,3.7,20,3.7,20c0.5,0,0.9-0.4,0.9-0.9l0-0.1c0-0.5-0.4-0.9-0.9-0.9c0,0,0,0,0,0
		c-0.5,0-0.9,0.4-0.8,0.9l0,0.1C2.8,19.6,3.2,20,3.7,20z"/>
	<path class="st0" d="M24.6,8.6c-3-2.7-6.4-1-7.7-0.2c-0.5,0.3-1,0.5-1.4,0.6c-0.2,0-0.3,0-0.3,0c0,0-0.1,0-0.3,0
		c-0.5-0.1-1-0.3-1.4-0.6C12.2,7.6,8.8,6,5.8,8.6c-2,1.8-2.7,5.5-2.9,8.2c0,0.5,0.3,0.9,0.8,0.9c0.5,0,0.9-0.3,0.9-0.8
		C4.8,13.6,5.7,11,7,9.9c2-1.8,4.4-0.8,5.6,0c0.6,0.4,1.3,0.7,2,0.8c0.3,0.1,0.5,0.1,0.7,0.1c0.2,0,0.4,0,0.7-0.1
		c0.7-0.1,1.3-0.4,2-0.8c1.2-0.8,3.6-1.8,5.6,0c2.5,2.3,2.6,8.9,2.3,11c0,0.4-0.2,0.7-0.4,0.9c-0.2,0.3-0.5,0.5-0.9,0.5
		c-0.8,0.1-2.4-0.3-5.3-2.7c-1.1-0.9-2.4-1.4-3.8-1.4c-0.1,0-0.2,0-0.3,0c-1.4,0-2.7,0.6-3.8,1.4c-2.9,2.4-4.5,2.8-5.3,2.7
		c-0.4,0-0.7-0.2-0.9-0.5c-0.1-0.1-0.2-0.3-0.3-0.4c-0.1-0.1-0.1-0.3-0.1-0.4c-0.1-0.5-0.5-0.8-1-0.7c-0.5,0.1-0.8,0.5-0.7,1
		c0,0.3,0.1,0.5,0.2,0.8c0.1,0.3,0.3,0.6,0.5,0.9c0.5,0.7,1.2,1.1,2.1,1.1c0.1,0,0.3,0,0.4,0c1.6,0,3.7-1,6.2-3.1
		c0.8-0.6,1.8-1,2.8-1c0.1,0,0.1,0,0.2,0c1,0,2,0.4,2.8,1c2.7,2.2,4.9,3.2,6.6,3.1c0.9-0.1,1.6-0.5,2.1-1.1c0.4-0.5,0.7-1.1,0.7-1.8
		C27.7,19.2,27.9,11.6,24.6,8.6z"/>
	<path class="st0" d="M9.6,11.1c-0.5,0-0.9,0.4-0.9,0.9v1.2H7.5c-0.5,0-0.9,0.4-0.9,0.9s0.4,0.9,0.9,0.9h1.2v1.2
		c0,0.5,0.4,0.9,0.9,0.9c0.5,0,0.9-0.4,0.9-0.9v-1.2h1.2c0.5,0,0.9-0.4,0.9-0.9s-0.4-0.9-0.9-0.9h-1.2v-1.2
		C10.5,11.5,10.1,11.1,9.6,11.1z"/>
	<path class="st0" d="M21,11c-0.5,0-1,0.4-1,1c0,0.5,0.4,1,1,1c0.5,0,1-0.4,1-1C21.9,11.4,21.5,11,21,11z"/>
	<circle class="st0" cx="21" cy="16" r="1"/>
	<path class="st0" d="M19.1,13c-0.5,0-1,0.4-1,1c0,0.5,0.4,1,1,1c0.5,0,1-0.4,1-1C20,13.4,19.6,13,19.1,13z"/>
	<path class="st0" d="M22.8,14.9c0.5,0,1-0.4,1-1c0-0.5-0.4-1-1-1c-0.5,0-1,0.4-1,1C21.8,14.5,22.2,14.9,22.8,14.9z"/>
</g>
</svg>
