<?xml version="1.0" encoding="utf-8"?>
<!-- Generator: Adobe Illustrator 22.1.0, SVG Export Plug-In . SVG Version: 6.00 Build 0)  -->
<svg version="1.1" id="圖層_1" xmlns="http://www.w3.org/2000/svg" xmlns:xlink="http://www.w3.org/1999/xlink" x="0px" y="0px"
	 viewBox="0 0 30 30" style="enable-background:new 0 0 30 30;" xml:space="preserve">
<path d="M24.7,15.9l-6.8-3.9C18.2,11,18,10,17.3,9.3l4-5.3l-4.5,4.9c0,0-0.1-0.1-0.2-0.1c-0.3-0.2-0.6-0.3-0.9-0.3l-0.2-5.3
	l-0.3,5.3c-0.8,0-1.5,0.3-1.9,0.9L9.7,7.2C9.6,7.2,9.5,7.2,9.4,7.2c-0.3,0-0.6,0.3-0.6,0.6v13.5l2-10.4l9.8,5.5l-8.9,5.2v-7.1
	L8.8,25c0,0.3,0.3,0.6,0.6,0.6c0.1,0,0.2,0,0.3-0.1l9.2-5.3l5.8-3.3C25.1,16.7,25.1,16.1,24.7,15.9z"/>
</svg>
